<?xml version="1.0" encoding="UTF-8"?>
<svg xmlns="http://www.w3.org/2000/svg" xmlns:xlink="http://www.w3.org/1999/xlink" version="1.2" >
<font id="Aamiya Regular">
<font-face  font-family="Aamiya" units-per-em="1024" ascent="936" descent="-280" font-style="normal" font-weight="400" font-stretch="normal" cap-height="660" x-height="500" underline-position="-125" underline-thickness="50" />
<missing-glyph  horiz-adv-x="650" d="" />
<glyph glyph-name="NULL" d="" />
<glyph glyph-name="CR" unicode="&#xd;" horiz-adv-x="256" d="" />
<glyph glyph-name="space" unicode="&#x20;" horiz-adv-x="242" d="" />
<glyph glyph-name="exclam" unicode="&#x21;" horiz-adv-x="170" d="M89 -5 C104 -5 118 9 118 24 C118 39 104 53 89 53 C74 53 60 39 60 24 C60 9 74 -5 89 -5 L89 -5 Z M111 620 C111 643 99 665 86 665 C73 665 61 643 62 620 L86 128 L92 128 L111 620 L111 620 Z " />
<glyph glyph-name="quotedbl" unicode="&#x22;" horiz-adv-x="212" d="M121 660 L143 489 L150 489 L172 660 L121 660 L121 660 Z M40 660 L62 489 L69 489 L91 660 L40 660 L40 660 Z " />
<glyph glyph-name="numbersign" unicode="&#x23;" horiz-adv-x="492" d="M364 685 L334 475 L202 475 L231 685 L216 685 L186 475 L62 475 L58 445 L182 445 L149 215 L23 215 L19 185 L145 185 L119 0 L135 0 L161 185 L292 185 L266 0 L282 0 L308 185 L423 185 L428 215 L312 215 L344 445 L468 445 L472 475 L349 475 L378 685 L364 685 L364 685 Z M197 445 L329 445 L296 215 L165 215 L197 445 L197 445 Z " />
<glyph glyph-name="dollar" unicode="&#x24;" horiz-adv-x="473" d="M254 735 L254 662 C243 664 233 665 223 665 C211 665 199 663 187 660 L187 735 L174 735 L174 656 C107 631 51 557 51 482 C51 433 108 366 174 328 L174 23 C169 24 164 26 159 28 C134 38 92 61 63 81 C61 83 59 85 58 87 L57 86 C55 87 53 88 51 89 C50 90 48 92 46 92 L44 92 L42 92 L42 73 L50 80 L50 80 L42 73 C63 47 118 21 175 7 L175 -74 L188 -74 L188 4 C211 -1 234 -4 255 -4 L255 -74 L268 -74 L268 -3 C352 4 430 86 430 170 C430 230 351 316 268 349 L268 644 C286 639 305 631 323 622 L323 622 C327 620 351 603 375 585 C377 583 379 581 381 579 L382 580 C384 579 386 578 388 577 C389 576 391 574 392 574 L394 574 L396 574 L396 593 L389 586 L389 586 L396 592 C372 621 317 650 268 662 L268 738 L254 735 L254 735 Z M188 390 L188 648 C199 652 210 654 221 654 C231 654 243 652 255 649 L255 355 C232 363 209 375 188 389 L188 390 L188 390 Z M175 398 C127 432 92 475 92 506 C92 562 129 618 175 642 L175 398 L175 398 Z M188 322 C197 318 206 314 215 311 C228 306 241 300 254 293 L254 11 C233 11 210 14 187 20 L188 322 L188 322 Z M267 286 C334 248 388 188 388 147 C388 82 330 19 267 12 L267 286 L267 286 Z " />
<glyph glyph-name="ampersand" unicode="&#x26;" horiz-adv-x="685" d="M265 371 C354 395 436 476 436 545 C436 605 370 664 303 664 C235 664 169 585 169 505 C169 477 192 423 226 363 C135 327 50 230 50 159 C50 76 151 -5 253 -5 C329 -5 404 29 458 80 C550 8 629 -10 685 0 L685 7 C641 -1 572 22 480 104 C514 144 535 192 535 240 L535 270 C535 344 537 375 540 375 L541 375 L541 377 L541 380 L531 380 L522 380 L522 377 L522 375 L523 375 C525 375 527 344 527 270 L527 240 C527 193 506 147 473 109 C441 138 407 174 370 218 C331 264 293 319 262 371 L265 371 L265 371 Z M259 377 C223 439 198 495 198 523 C198 590 248 656 298 656 C351 656 403 601 403 544 C403 478 334 401 259 378 L259 377 L259 377 Z M450 86 C402 43 338 14 273 14 C179 14 86 94 86 175 C86 241 154 327 228 359 C260 304 301 244 342 195 C380 150 416 114 451 86 L450 86 L450 86 Z " />
<glyph glyph-name="quotesingle" unicode="&#x27;" horiz-adv-x="130" d="M40 660 L62 489 L69 489 L91 660 L40 660 L40 660 Z " />
<glyph glyph-name="parenleft" unicode="&#x28;" horiz-adv-x="178" d="M164 690 C111 627 60 464 60 270 C60 76 111 -87 164 -150 L169 -146 C130 -99 91 58 91 270 C91 482 130 639 169 686 L164 690 L164 690 Z " />
<glyph glyph-name="parenright" unicode="&#x29;" horiz-adv-x="178" d="M10 -150 C62 -87 114 76 114 270 C114 464 62 627 10 690 L5 686 C44 639 83 482 83 270 C83 58 44 -99 5 -146 L10 -150 L10 -150 Z " />
<glyph glyph-name="asterisk" unicode="&#x2a;" horiz-adv-x="261" d="M147 540 L40 491 C33 487 29 478 33 472 C36 466 46 465 52 469 L149 537 L138 420 C137 412 143 404 150 404 C157 404 163 412 162 420 L151 537 L248 469 C254 465 264 466 267 472 C271 478 267 487 260 491 L153 540 L260 589 C267 593 271 602 267 608 C264 614 254 615 248 611 L151 543 L162 660 C163 668 157 676 150 676 C143 676 137 668 138 660 L149 543 L52 611 C46 615 36 614 33 608 C29 602 33 593 40 589 L147 540 L147 540 Z " />
<glyph glyph-name="plus" unicode="&#x2b;" horiz-adv-x="525" d="M250 435 L250 259 L75 259 L75 241 L250 241 L250 65 L270 65 L270 241 L445 241 L445 259 L270 259 L270 435 L250 435 L250 435 Z " />
<glyph glyph-name="comma" unicode="&#x2c;" horiz-adv-x="172" d="M89 -5 C92 -5 95 -4 98 -3 C99 -8 100 -13 100 -17 C100 -40 85 -71 69 -78 L72 -84 C98 -72 124 -28 124 3 C124 11 122 21 119 30 C117 43 104 54 91 54 C76 54 62 40 62 25 C62 10 76 -4 91 -4 L89 -5 L89 -5 Z " />
<glyph glyph-name="hyphen" unicode="&#x2d;" horiz-adv-x="241" d="M20 243 L222 243 L222 274 L20 274 L20 243 L20 243 Z " />
<glyph glyph-name="period" unicode="&#x2e;" horiz-adv-x="213" d="M125 -5 C140 -5 154 9 154 24 C154 39 140 53 125 53 C110 53 96 39 96 24 C96 9 110 -5 125 -5 L125 -5 Z " />
<glyph glyph-name="slash" unicode="&#x2f;" horiz-adv-x="327" d="M0 -145 L18 -145 L328 710 L310 710 L0 -145 L0 -145 Z " />
<glyph glyph-name="zero" unicode="0" horiz-adv-x="566" d="M283 4 C188 4 94 126 94 250 C94 374 188 496 283 496 C379 496 472 374 472 250 C472 126 379 4 283 4 L283 4 Z M50 250 C50 121 165 -5 283 -5 C401 -5 517 121 517 250 C517 379 401 505 283 505 C165 505 50 379 50 250 L50 250 Z " />
<glyph glyph-name="one" unicode="1" horiz-adv-x="157" d="M79 0 L99 0 L103 0 L103 3 L103 5 L102 5 C100 5 99 37 99 70 L99 430 C99 463 100 495 102 495 L103 495 L103 497 L103 500 L99 500 L79 500 L59 500 L55 500 L55 497 L55 495 L56 495 C57 495 59 463 59 430 L59 70 C59 37 57 5 56 5 L55 5 L55 3 L55 0 L59 0 L79 0 L79 0 Z " />
<glyph glyph-name="two" unicode="2" horiz-adv-x="450" d="M419 38 L419 40 L419 40 C419 41 419 42 419 43 L417 43 L414 43 L414 42 C414 41 382 39 349 39 L84 39 C247 150 392 251 392 347 C392 426 321 504 248 504 C189 504 102 431 72 357 L77 354 C101 415 176 475 228 475 C288 475 347 405 347 334 C347 217 188 120 25 8 L25 -1 L415 -1 L417 19 C418 23 419 31 419 37 L419 38 L419 38 Z " />
<glyph glyph-name="three" unicode="3" horiz-adv-x="424" d="M26 -215 C202 -204 374 -78 374 40 C374 126 271 210 166 210 C164 210 159 209 153 208 C248 255 326 328 326 378 C326 443 264 506 201 506 C143 506 49 442 11 377 L16 374 C46 426 128 477 181 477 C234 477 286 421 286 365 C286 311 199 232 103 194 C94 191 85 188 76 185 L76 179 C78 180 80 181 82 182 C101 187 135 192 156 192 C244 192 331 117 331 41 C331 -74 179 -196 24 -206 L26 -215 L26 -215 Z " />
<glyph glyph-name="four" unicode="4" horiz-adv-x="445" d="M31 18 L30 18 L30 17 L23 6 L23 0 L30 0 L32 0 L301 0 L301 -150 L341 -150 L341 0 L435 0 L435 18 L341 18 L341 429 L341 493 L341 505 L335 505 L31 18 L31 18 Z M43 18 L301 430 L301 429 L301 18 L43 18 L43 18 Z " />
<glyph glyph-name="five" unicode="5" horiz-adv-x="408" d="M68 228 L79 228 L124 228 C222 228 318 143 318 56 C318 -55 176 -169 31 -175 L31 -182 C197 -175 359 -51 359 69 C359 169 253 268 144 268 L82 268 L97 500 L85 500 L68 228 L68 228 Z M354 500 C354 501 354 502 354 503 L352 503 L349 503 L349 502 C349 501 316 499 283 499 L96 499 L94 457 L339 457 L346 478 L353 499 L354 500 L354 500 Z " />
<glyph glyph-name="six" unicode="6" horiz-adv-x="541" d="M481 715 C275 708 74 502 74 300 C74 275 77 250 82 225 C78 217 75 209 72 201 L81 201 C82 205 83 209 84 213 C113 95 195 -3 279 -3 C391 -3 495 106 489 218 C489 324 398 429 306 429 C249 429 172 370 118 293 C118 301 118 309 118 315 C118 508 296 704 478 710 L481 715 L481 715 Z M116 278 C166 356 242 418 297 418 C372 418 445 318 445 215 C451 111 369 8 281 8 C197 8 115 135 115 264 C115 268 115 273 115 278 L116 278 L116 278 Z " />
<glyph glyph-name="seven" unicode="7" horiz-adv-x="408" d="M28 479 L26 459 L27 459 C27 458 27 457 27 456 L30 456 L32 456 L32 457 C32 458 65 460 97 460 L379 460 L122 -139 L166 -139 L386 460 L399 497 L396 501 L31 501 L29 481 L29 481 L29 481 L28 479 L28 479 Z " />
<glyph glyph-name="eight" unicode="8" horiz-adv-x="510" d="M286 350 C278 352 270 354 262 355 C194 366 127 443 127 512 C127 585 193 656 260 656 C329 656 397 584 397 510 C397 437 344 362 288 350 L286 350 L286 350 Z M293 349 C365 364 431 443 431 518 C431 593 348 666 263 666 C178 666 95 582 95 497 C95 428 156 351 226 324 C146 319 70 243 70 165 C70 80 167 -3 267 -3 C366 -3 463 85 463 175 C463 243 383 323 293 350 L293 349 L293 349 Z M228 324 C238 320 248 317 258 315 C343 302 426 226 426 161 C426 82 348 5 269 5 C187 5 107 87 107 171 C107 245 167 317 230 322 L228 324 L228 324 Z " />
<glyph glyph-name="nine" unicode="9" horiz-adv-x="541" d="M61 -215 C266 -208 467 -2 467 200 C467 225 464 250 459 274 C463 283 467 292 470 301 L461 301 C460 297 458 293 456 289 C427 408 344 506 260 506 C147 506 43 397 49 285 C49 179 140 74 233 74 C289 74 366 133 420 209 C419 201 418 193 418 188 C418 -5 240 -201 58 -207 L61 -215 L61 -215 Z M420 224 C369 146 293 84 238 84 C164 84 90 184 90 287 C85 391 166 494 254 494 C338 494 421 367 421 238 C421 234 421 229 421 223 L420 224 L420 224 Z " />
<glyph glyph-name="colon" unicode="&#x3a;" horiz-adv-x="213" d="M125 356 C140 356 154 370 154 385 C154 400 140 414 125 414 C110 414 96 400 96 385 C96 370 110 356 125 356 L125 356 Z M125 -5 C140 -5 154 9 154 24 C154 39 140 53 125 53 C110 53 96 39 96 24 C96 9 110 -5 125 -5 L125 -5 Z " />
<glyph glyph-name="semicolon" unicode="&#x3b;" horiz-adv-x="172" d="M89 356 C104 356 118 370 118 385 C118 400 104 414 89 414 C74 414 60 400 60 385 C60 370 74 356 89 356 L89 356 Z M89 -5 C92 -5 95 -4 98 -3 C99 -8 100 -13 100 -17 C100 -40 85 -71 69 -78 L72 -84 C98 -72 124 -28 124 3 C124 11 122 21 119 30 C117 43 104 54 91 54 C76 54 62 40 62 25 C62 10 76 -4 91 -4 L89 -5 L89 -5 Z " />
<glyph glyph-name="less" unicode="&#x3c;" horiz-adv-x="504" d="M430 500 L44 287 L40 284 L40 266 L44 263 L430 50 L430 70 L55 275 L430 480 L430 500 L430 500 Z " />
<glyph glyph-name="equal" unicode="&#x3d;" horiz-adv-x="496" d="M76 209 L76 191 L427 191 L427 209 L76 209 L76 209 Z M76 309 L76 291 L427 291 L427 309 L76 309 L76 309 Z " />
<glyph glyph-name="greater" unicode="&#x3e;" horiz-adv-x="500" d="M439 275 L75 70 L75 50 L450 263 L460 269 L460 281 L450 287 L75 500 L75 480 L439 275 L439 275 Z " />
<glyph glyph-name="question" unicode="&#x3f;" horiz-adv-x="336" d="M132 -5 C146 -5 161 9 161 24 C161 39 146 53 132 53 C117 53 103 39 103 24 C103 9 117 -5 132 -5 L132 -5 Z M142 336 L177 336 C265 336 302 415 302 449 C302 558 211 665 117 665 C79 665 42 631 42 597 C42 593 53 589 65 589 C89 589 106 634 130 634 C212 634 292 545 292 454 C292 427 254 366 164 366 L129 366 C124 366 120 363 120 360 L129 133 L134 133 L142 336 L142 336 Z " />
<glyph glyph-name="at" unicode="&#x40;" horiz-adv-x="1089" d="M1001 0 C944 -121 721 -239 550 -239 C316 -239 86 8 86 259 C86 510 313 757 545 757 C776 757 1003 552 1003 343 C1003 171 908 3 812 3 C708 3 630 101 655 200 L725 480 L687 480 L662 380 C651 438 600 490 549 490 C418 490 289 346 289 198 C289 105 368 14 448 14 C506 14 579 78 613 152 C619 65 702 -10 805 -10 C920 -10 1034 165 1034 343 C1034 558 792 768 545 768 C297 768 55 516 55 259 C55 2 300 -250 550 -250 C725 -250 955 -126 1014 0 L1001 0 L1001 0 Z M656 356 L617 200 C596 118 523 37 469 37 C400 37 333 121 333 206 C333 344 439 479 548 479 C603 479 656 419 657 356 L656 356 L656 356 Z " />
<glyph glyph-name="A" unicode="A" horiz-adv-x="495" d="M454 70 L453 70 L241 675 L227 675 L34 70 L34 70 C23 37 11 5 10 5 L9 5 L9 3 L9 0 L12 0 L21 0 L31 0 L36 0 L36 3 L36 5 C35 5 38 21 44 43 L112 260 L328 260 L406 28 C410 14 413 5 412 5 L411 5 L411 3 L411 0 L415 0 L447 0 L478 0 L481 0 L481 3 L481 5 C479 5 465 37 454 70 L454 70 Z M323 275 L117 275 L216 594 L323 275 L323 275 Z " />
<glyph glyph-name="B" unicode="B" horiz-adv-x="495" d="M226 392 C221 392 216 392 211 392 L113 390 L113 649 L230 649 C299 649 366 589 366 528 C366 464 300 402 227 392 L226 392 L226 392 Z M197 383 C308 383 416 291 416 197 C416 103 333 11 249 11 L113 11 L113 383 L197 383 L197 383 Z M258 388 C348 406 424 467 424 528 C424 595 328 660 230 660 L113 660 L84 660 L55 660 L52 660 L52 657 L52 655 C54 655 55 623 55 590 L55 70 C55 37 54 5 52 5 L52 3 L52 0 L55 0 L84 0 L113 0 L253 0 C366 0 477 98 477 197 C477 284 374 369 258 388 L258 388 Z " />
<glyph glyph-name="C" unicode="C" horiz-adv-x="689" d="M618 92 L618 92 C617 91 616 90 615 89 C584 64 513 32 465 21 L465 21 C436 14 406 10 380 10 C251 10 124 169 124 331 C124 493 251 652 380 652 C423 652 474 642 518 626 C550 613 592 589 613 571 C614 570 615 569 616 568 L616 568 C617 567 618 566 619 565 L623 561 L625 561 L628 561 L628 577 C591 621 468 664 379 664 C218 664 59 498 59 329 C59 160 218 -6 379 -6 C468 -6 591 37 628 81 L628 97 L625 97 L623 97 L619 93 C618 92 617 91 616 90 L618 92 L618 92 Z " />
<glyph glyph-name="D" unicode="D" horiz-adv-x="592" d="M83 0 L112 0 L250 0 C398 0 543 163 543 330 C543 497 381 660 215 660 L112 660 L83 660 L54 660 L51 660 L51 657 L51 655 C53 655 54 623 54 590 L54 70 C54 37 53 5 51 5 L51 3 L51 0 L54 0 L83 0 L83 0 Z M112 11 L112 649 L215 649 C352 649 485 491 485 330 C485 169 369 11 250 11 L112 11 L112 11 Z " />
<glyph glyph-name="E" unicode="E" horiz-adv-x="414" d="M373 7 C374 11 375 18 376 21 L372 21 L370 20 C363 18 307 15 256 14 L98 14 L98 380 L209 380 C252 380 297 378 301 376 L302 376 L305 376 L306 376 L306 380 L306 387 L306 394 L306 398 L305 398 L302 398 L301 398 C297 396 252 395 209 394 L98 394 L98 646 L248 646 C299 646 354 643 361 640 L363 639 L366 639 L366 653 L366 660 L361 660 L296 660 L98 660 L69 660 L41 660 L37 660 L37 657 L37 655 C39 655 41 623 41 590 L41 70 C41 37 39 5 37 5 L37 3 L37 0 L41 0 L69 0 L98 0 L302 0 L371 0 L372 0 L373 7 L373 7 Z " />
<glyph glyph-name="F" unicode="F" horiz-adv-x="401" d="M396 653 L396 660 L391 660 L326 660 L98 660 L69 660 L41 660 L37 660 L37 657 L37 655 C39 655 41 623 41 590 L41 70 C41 37 39 5 37 5 L37 3 L37 0 L41 0 L69 0 L98 0 L105 0 L105 3 L105 5 L104 5 C101 5 98 37 98 70 L98 374 L199 374 C242 374 287 372 291 371 L292 370 L295 370 L296 370 L296 374 L296 382 L296 389 L296 393 L295 393 L292 393 L291 392 C287 391 242 389 199 389 L98 389 L98 646 L278 646 C329 646 384 643 391 640 L393 639 L396 639 L396 653 L396 653 Z " />
<glyph glyph-name="G" unicode="G" horiz-adv-x="707" d="M562 240 L562 49 C503 27 421 9 370 9 C246 9 125 168 125 330 C125 492 246 651 370 651 C406 651 448 643 487 630 L487 630 C520 619 570 592 595 571 C596 570 597 569 598 568 L598 568 C599 567 600 566 601 565 L605 561 L607 561 L610 561 L610 577 C573 621 454 664 370 664 C214 664 61 498 61 329 C61 160 214 -6 370 -6 C439 -6 560 25 614 56 L614 239 C614 272 615 304 617 304 L618 304 L618 306 L618 309 L614 309 L588 309 L562 309 L558 309 L558 306 L558 304 L559 304 C560 304 562 272 562 239 L562 240 L562 240 Z " />
<glyph glyph-name="H" unicode="H" horiz-adv-x="594" d="M522 0 L550 0 L554 0 L554 3 L554 5 C552 5 551 37 550 70 L550 590 C551 623 552 655 554 655 L554 657 L554 660 L550 660 L522 660 L493 660 L489 660 L489 657 L489 655 C491 655 493 623 493 590 L493 388 L98 388 L98 590 C98 623 100 655 102 655 L102 657 L102 660 L98 660 L69 660 L41 660 L37 660 L37 657 L37 655 C39 655 41 623 41 590 L41 70 C41 37 39 5 37 5 L37 3 L37 0 L41 0 L69 0 L98 0 L102 0 L102 3 L102 5 C100 5 98 37 98 70 L98 373 L493 373 L493 70 C493 37 491 5 489 5 L489 3 L489 0 L493 0 L522 0 L522 0 Z " />
<glyph glyph-name="I" unicode="I" horiz-adv-x="138" d="M66 0 L95 0 L99 0 L99 3 L99 5 L98 5 C97 5 95 37 95 70 L95 590 C95 623 97 655 98 655 L99 655 L99 657 L99 660 L95 660 L66 660 L37 660 L33 660 L33 657 L33 655 L34 655 C35 655 37 623 37 590 L37 70 C37 37 35 5 34 5 L33 5 L33 3 L33 0 L37 0 L66 0 L66 0 Z " />
<glyph glyph-name="J" unicode="J" horiz-adv-x="269" d="M168 590 L168 200 C168 78 140 -1 97 -1 C73 -1 44 24 38 50 C35 59 25 68 18 68 C6 68 -3 59 0 50 C8 20 50 -10 86 -10 C171 -10 226 92 226 249 L226 590 C226 623 228 655 229 655 L230 655 L230 657 L230 660 L226 660 L197 660 L168 660 L164 660 L164 657 L164 655 L165 655 C166 655 168 623 168 590 L168 590 Z " />
<glyph glyph-name="K" unicode="K" horiz-adv-x="540" d="M530 -5 L530 4 L525 4 C504 4 417 85 304 210 L153 376 L397 625 C415 643 428 656 429 656 L430 656 L430 658 C430 660 431 661 431 661 L431 661 L421 661 L412 661 L408 661 C408 661 408 660 407 658 L407 656 C407 656 378 627 348 596 L142 387 L142 387 L111 355 L111 590 C111 623 113 655 114 655 L115 655 L115 657 L115 660 L111 660 L82 660 L53 660 L50 660 L50 657 L50 655 C52 655 53 623 53 590 L53 70 C53 37 52 5 50 5 L50 3 L50 0 L53 0 L82 0 L111 0 L115 0 L115 3 L115 5 L114 5 C113 5 111 37 111 70 L111 355 L120 343 L121 344 L271 178 C372 67 467 -5 511 -5 L530 -5 L530 -5 Z " />
<glyph glyph-name="L" unicode="L" horiz-adv-x="414" d="M373 7 C374 11 375 18 376 22 L375 22 L370 22 L368 21 C362 18 312 15 266 14 L98 14 L98 590 C98 623 100 655 102 655 L102 657 L102 660 L98 660 L69 660 L41 660 L37 660 L37 657 L37 655 C39 655 41 623 41 590 L41 70 C41 37 39 5 37 5 L37 3 L37 0 L41 0 L69 0 L98 0 L302 0 L371 0 L372 0 L373 7 L373 7 Z " />
<glyph glyph-name="M" unicode="M" horiz-adv-x="642" d="M635 70 L635 70 L610 625 C610 643 610 656 611 656 L612 656 L612 658 L612 661 L608 661 L582 661 L571 661 L556 661 L332 70 L117 661 L79 661 L70 661 L62 661 L58 661 L58 658 L58 656 C60 656 60 624 59 591 L59 591 L39 71 L38 71 C37 38 34 6 33 6 L32 6 L32 4 L32 1 L36 1 L44 1 L53 1 L59 1 L59 4 L59 6 L58 6 C55 6 55 37 56 72 L76 595 L298 9 L314 26 L314 26 L303 -4 L318 -4 L556 625 L577 45 C577 23 576 6 575 6 L574 6 L574 4 L574 1 L578 1 L607 1 L636 1 L640 1 L640 4 L640 6 L639 6 C637 6 634 38 633 71 L635 70 L635 70 Z M297 9 L313 26 L302 -4 L297 9 L297 9 Z " />
<glyph glyph-name="N" unicode="N" horiz-adv-x="521" d="M469 590 L469 71 L103 660 L64 660 L55 660 L47 660 L43 660 L43 657 L43 655 C45 655 47 623 47 590 L47 70 C47 37 45 5 43 5 L43 3 L43 0 L47 0 L55 0 L64 0 L68 0 L68 3 L68 5 L67 5 C66 5 64 37 64 70 L64 614 L443 8 L453 -9 L487 -9 L487 29 L487 590 L487 626 C488 643 489 655 490 655 L490 657 L490 660 L487 660 L478 660 L469 660 L465 660 L465 657 L465 655 L466 655 C468 655 469 623 469 590 L469 590 Z " />
<glyph glyph-name="O" unicode="O" horiz-adv-x="729" d="M370 9 C234 9 125 184 125 330 C125 476 234 651 370 651 C507 651 616 476 616 330 C616 184 507 9 370 9 L370 9 Z M61 330 C61 178 198 -5 370 -5 C542 -5 679 178 679 330 C679 482 542 665 370 665 C198 665 61 482 61 330 L61 330 Z " />
<glyph glyph-name="P" unicode="P" horiz-adv-x="470" d="M83 0 L112 0 L116 0 L116 3 L116 5 L115 5 C114 5 112 37 112 70 L112 328 L215 328 C334 328 450 409 450 492 C450 577 346 660 240 660 L112 660 L83 660 L54 660 L51 660 L51 657 L51 655 C53 655 54 623 54 590 L54 70 C54 37 53 5 51 5 L51 3 L51 0 L54 0 L83 0 L83 0 Z M112 339 L112 649 L240 649 C316 649 390 571 390 492 C390 415 303 339 215 339 L112 339 L112 339 Z " />
<glyph glyph-name="Q" unicode="Q" horiz-adv-x="729" d="M758 -51 L754 -47 C733 -72 661 -97 608 -97 C528 -97 431 -52 378 -4 C547 1 680 181 680 331 C680 483 543 666 371 666 C199 666 62 483 62 331 C62 181 195 1 363 -5 C428 -67 534 -126 605 -126 C651 -126 727 -89 759 -51 L758 -51 L758 -51 Z M371 9 C235 9 126 184 126 330 C126 476 235 651 371 651 C508 651 617 476 617 330 C617 184 508 9 371 9 L371 9 Z " />
<glyph glyph-name="R" unicode="R" horiz-adv-x="501" d="M501 0 L501 9 L496 9 C484 9 469 26 419 97 L242 352 C339 366 426 435 426 505 C426 584 328 661 229 661 L112 661 L83 661 L54 661 L51 661 L51 658 L51 656 C53 656 54 624 54 591 L54 71 C54 38 53 6 51 6 L51 4 L51 1 L54 1 L83 1 L112 1 L116 1 L116 4 L116 6 L115 6 C114 6 112 38 112 71 L112 350 L190 350 L358 107 C418 21 442 1 483 1 L501 0 L501 0 Z M206 361 L182 361 L112 361 L112 650 L229 650 C298 650 365 578 365 505 C365 432 286 361 206 361 L206 361 Z " />
<glyph glyph-name="S" unicode="S" horiz-adv-x="473" d="M322 620 L322 620 C326 618 350 601 374 583 C376 581 378 579 380 577 L381 578 C383 577 385 576 387 575 C388 574 390 572 391 572 L393 572 L395 572 L395 591 L388 584 L388 584 L395 590 C363 628 278 666 223 666 C136 666 51 575 51 482 C51 423 132 338 214 309 C302 279 388 198 388 146 C388 77 322 10 255 10 C226 10 191 17 159 28 C134 38 92 61 63 81 C61 83 59 85 58 87 L57 86 C55 87 53 88 51 89 C50 90 48 92 46 92 L44 92 L42 92 L42 73 L50 80 L50 80 L42 73 C74 35 180 -3 256 -3 C344 -3 430 83 430 171 C430 233 345 324 258 354 C174 383 92 458 92 506 C92 580 156 653 221 653 C250 653 289 640 323 622 L322 620 L322 620 Z " />
<glyph glyph-name="T" unicode="T" horiz-adv-x="590" d="M562 653 L561 660 L550 660 L491 660 L99 660 L40 660 L29 660 L29 653 L27 638 L28 638 L31 638 L34 639 C41 643 88 646 128 646 L266 646 L266 70 C266 37 265 5 263 5 L262 5 L262 3 L262 0 L266 0 L295 0 L324 0 L328 0 L328 3 L328 5 L327 5 C326 5 324 37 324 70 L324 646 L462 646 C503 646 549 643 557 639 L559 638 L563 638 C563 641 562 649 562 653 L562 653 Z " />
<glyph glyph-name="U" unicode="U" horiz-adv-x="522" d="M44 590 L44 206 C44 99 132 -5 267 -5 C396 -5 480 84 480 176 L480 580 C480 618 482 655 484 655 L485 655 C484 655 484 656 485 657 C484 659 484 660 485 660 L480 660 L474 660 L467 660 L462 660 L462 657 L462 655 L463 655 C465 655 467 618 467 580 L467 180 C467 97 391 15 275 15 C170 15 102 104 102 194 L102 590 C102 623 104 655 105 655 L106 655 L106 657 L106 660 L102 660 L73 660 L44 660 L41 660 L41 657 L41 655 C43 655 44 623 44 590 L44 590 Z " />
<glyph glyph-name="V" unicode="V" horiz-adv-x="520" d="M442 560 L442 560 L270 -15 L281 -15 L464 590 L464 590 C474 623 485 655 487 655 L487 657 L487 660 L485 660 L478 660 L472 660 L466 660 C465 660 465 659 466 657 C465 656 465 655 466 655 C468 655 456 608 442 560 L442 560 Z M45 590 L45 590 L270 -15 L288 47 L106 590 L106 590 C95 623 85 655 87 655 L87 657 L87 660 L82 660 L50 660 L19 660 L17 660 L17 657 L17 655 L18 655 C19 655 32 623 45 590 L45 590 Z " />
<glyph glyph-name="W" unicode="W" horiz-adv-x="802" d="M52 590 L52 590 L236 -15 L247 -15 L425 670 L414 670 L236 -15 L253 52 L112 590 L113 590 C104 623 97 655 98 655 L99 655 L99 657 L99 660 L94 660 L62 660 L31 660 L29 660 L29 657 L29 655 L30 655 C31 655 42 623 52 590 L52 590 Z M738 598 L579 -15 L590 -15 L749 590 L749 590 C757 623 767 655 769 655 L770 655 L770 657 L770 660 L767 660 L761 660 L754 660 L749 660 L749 657 L749 655 C751 655 745 628 738 598 L738 598 Z M579 -15 L597 56 L425 670 L406 594 L579 -15 L579 -15 Z " />
<glyph glyph-name="X" unicode="X" horiz-adv-x="570" d="M142 85 L142 85 L276 311 L433 70 L433 70 C454 37 474 5 474 5 L473 5 L473 3 L473 0 L479 0 L511 0 L544 0 L544 3 L544 5 C542 5 520 37 499 70 L499 70 L315 353 L315 353 L475 590 L475 590 C497 623 520 655 522 655 L523 655 L523 657 L523 660 L522 660 L512 660 L501 660 L496 660 L496 657 L496 655 C497 655 487 639 473 618 L306 365 L160 590 L161 590 C140 623 120 655 120 655 L121 655 L121 657 L121 660 L115 660 L83 660 L50 660 C49 660 49 659 50 657 L50 655 C52 655 74 623 95 590 L96 590 L270 323 L269 323 L116 70 L116 70 C96 37 75 5 73 5 L73 3 L73 0 L74 0 L84 0 L93 0 L99 0 L99 3 L99 5 C97 5 120 45 144 85 L142 85 L142 85 Z " />
<glyph glyph-name="Y" unicode="Y" horiz-adv-x="482" d="M414 570 L414 570 L268 295 L255 295 L125 590 L125 590 C111 623 98 655 99 655 L99 657 L99 660 L94 660 L60 660 L25 660 L25 657 L25 655 C26 655 32 644 40 628 L220 265 L220 70 C220 37 218 5 217 5 L216 5 L216 3 L216 0 L220 0 L249 0 L278 0 L282 0 L282 3 L282 5 L281 5 C280 5 278 37 278 70 L278 295 L449 614 C462 637 473 655 474 655 L475 655 L475 657 L475 660 L474 660 L467 660 L461 660 L455 660 L455 657 L455 655 L456 655 C457 655 436 613 413 570 L414 570 L414 570 Z " />
<glyph glyph-name="Z" unicode="Z" horiz-adv-x="540" d="M485 8 C486 11 487 19 488 22 L487 22 C484 23 482 23 482 23 L480 22 C474 18 424 15 378 15 L126 15 L500 660 L467 660 L434 660 L191 660 L132 660 L121 660 L119 653 C118 649 116 643 116 639 L120 639 L122 640 C130 643 177 646 217 646 L426 646 L52 0 L84 0 L117 0 L414 0 L483 0 L484 0 L485 8 L485 8 Z " />
<glyph glyph-name="bracketleft" unicode="&#x5b;" horiz-adv-x="225" d="M110 651 L215 651 L215 660 L110 660 L79 660 L79 -120 L110 -120 L215 -120 L215 -111 L110 -111 L110 651 L110 651 Z " />
<glyph glyph-name="backslash" unicode="&#x5c;" horiz-adv-x="217" d="M204 -145 L218 -145 L-46 710 L-60 710 L204 -145 L204 -145 Z " />
<glyph glyph-name="bracketright" unicode="&#x5d;" horiz-adv-x="210" d="M110 651 L110 -111 L5 -111 L5 -120 L110 -120 L141 -120 L141 660 L110 660 L5 660 L5 651 L110 651 L110 651 Z " />
<glyph glyph-name="underscore" unicode="&#x5f;" horiz-adv-x="388" d="M5 -50 L5 -72 L384 -72 L384 -50 L5 -50 L5 -50 Z " />
<glyph glyph-name="a" unicode="a" horiz-adv-x="448" d="M427 36 C413 22 391 9 374 9 C348 9 335 37 335 66 L335 361 C335 433 283 505 230 505 C125 505 47 439 71 372 L111 372 C89 434 143 494 221 494 C257 494 293 432 293 369 L293 269 L184 231 C109 205 35 141 35 101 C35 48 85 -5 137 -5 C179 -5 249 30 293 72 L293 62 C293 26 311 -10 346 -10 C375 -10 410 10 431 31 L427 36 L427 36 Z M293 259 L293 79 C256 48 196 22 156 22 C115 22 75 67 75 113 C75 146 129 198 184 219 L293 259 L293 259 Z " />
<glyph glyph-name="b" unicode="b" horiz-adv-x="498" d="M36 0 L40 0 C44 12 56 23 65 23 C106 23 167 -5 222 -5 C334 -5 444 120 444 247 C444 377 343 505 240 505 C183 505 104 464 76 420 L76 640 L76 710 L76 720 L68 720 L38 710 L36 710 L36 709 L32 708 L32 705 L33 704 C35 697 36 675 36 629 L36 127 L36 0 L36 0 Z M76 411 C99 449 165 487 209 487 C307 487 402 359 402 229 C402 117 313 6 222 6 C149 6 76 66 76 127 L76 411 L76 411 Z " />
<glyph glyph-name="c" unicode="c" horiz-adv-x="438" d="M387 96 L382 99 C357 59 293 19 252 19 C171 19 92 134 92 252 C92 374 180 494 269 494 C306 494 347 449 351 403 C352 394 362 384 371 384 C380 384 389 393 389 402 C384 454 327 505 273 505 C161 505 50 372 50 236 C50 114 133 -5 219 -5 C272 -5 355 45 387 96 L387 96 Z " />
<glyph glyph-name="d" unicode="d" horiz-adv-x="563" d="M451 10 L453 10 L453 11 L457 12 L457 15 L457 16 C454 23 453 45 453 91 L453 640 L453 710 L453 720 L445 720 L415 710 L413 710 L413 709 L409 708 L409 705 L410 704 C412 697 413 675 413 629 L413 413 C384 463 320 506 256 506 C154 506 54 368 54 227 C54 110 147 -4 241 -4 C305 -4 384 28 411 63 L411 11 L411 1 L419 1 L451 10 L451 10 Z M411 81 L411 71 C394 45 323 20 263 20 C179 20 96 130 96 242 C96 370 174 495 254 495 C324 495 393 443 412 388 L411 81 L411 81 Z " />
<glyph glyph-name="e" unicode="e" horiz-adv-x="445" d="M394 96 L389 99 C364 59 298 19 255 19 C173 19 92 134 92 252 C92 286 98 320 108 351 L358 351 L396 351 C396 429 321 505 244 505 C146 505 50 372 50 236 C50 114 135 -5 222 -5 C277 -5 362 45 394 96 L394 96 Z M111 359 C138 435 190 493 243 493 C301 493 359 439 359 384 C359 375 352 367 343 365 L111 359 L111 359 Z " />
<glyph glyph-name="f" unicode="f" horiz-adv-x="205" d="M70 0 L90 0 L94 0 L94 3 L94 5 L93 5 C91 5 90 37 90 70 L90 484 L205 484 L205 500 L90 500 L90 533 C90 623 136 711 184 711 C207 711 232 686 234 660 C235 652 245 643 254 643 C263 643 272 652 272 660 C269 691 231 720 195 720 C128 720 57 632 52 542 L50 500 L-26 500 L-26 484 L50 484 L50 70 C50 37 48 5 47 5 L46 5 L46 3 L46 0 L50 0 L70 0 L70 0 Z " />
<glyph glyph-name="g" unicode="g" horiz-adv-x="435" d="M436 500 L298 490 C278 499 256 504 234 504 C152 504 72 428 72 350 C72 285 126 222 191 201 L188 201 C120 201 54 158 54 113 C54 72 102 33 157 25 C90 -3 29 -66 29 -109 C29 -175 97 -240 166 -240 C293 -240 417 -148 417 -54 C417 5 333 64 248 64 L182 61 C131 58 81 92 81 129 C81 162 134 194 188 194 L235 194 C317 194 397 270 397 349 C397 397 367 444 325 473 L438 475 L436 500 L436 500 Z M111 348 C111 421 173 493 236 493 C299 493 361 421 361 348 C361 274 299 202 236 202 C173 202 111 274 111 348 L111 348 Z M170 22 C175 22 180 22 185 22 L238 25 C314 25 389 -25 389 -75 C389 -153 281 -230 171 -230 C113 -230 57 -168 57 -106 C57 -62 112 -1 169 22 L170 22 L170 22 Z " />
<glyph glyph-name="h" unicode="h" horiz-adv-x="445" d="M362 70 C362 37 360 5 359 5 L358 5 L358 3 L358 0 L362 0 L382 0 L402 0 L406 0 L406 3 L406 5 L405 5 C404 5 402 37 402 70 L402 336 C402 421 356 505 284 505 C219 505 126 455 89 402 L89 640 L89 710 L89 720 L81 720 L51 710 L49 710 L49 709 L45 708 L45 705 L45 704 C48 697 49 675 49 629 L49 70 C49 37 47 5 45 5 L45 3 L45 0 L49 0 L69 0 L89 0 L92 0 L92 3 L92 5 C91 5 90 17 89 34 L89 70 L89 396 C119 438 198 478 253 478 C319 478 362 406 362 332 L362 70 L362 70 Z " />
<glyph glyph-name="i" unicode="i" horiz-adv-x="137" d="M67 570 C80 570 93 583 93 597 C93 610 80 623 67 623 C53 623 40 610 40 597 C40 583 53 570 67 570 L67 570 Z M69 0 L89 0 L93 0 L93 3 L93 5 L92 5 C90 5 89 37 89 70 L89 420 L89 490 L89 500 L81 500 L51 490 L49 490 L49 489 L45 488 L45 485 L46 484 C48 477 49 455 49 409 L49 70 C49 37 47 5 46 5 L45 5 L45 3 L45 0 L49 0 L69 0 L69 0 Z " />
<glyph glyph-name="j" unicode="j" horiz-adv-x="131" d="M61 570 C74 570 87 583 87 597 C87 610 74 623 61 623 C47 623 34 610 34 597 C34 583 47 570 61 570 L61 570 Z M43 489 L39 488 L39 485 L40 484 C42 477 43 455 43 409 L43 10 C43 -116 9 -189 -50 -226 L-46 -231 C35 -180 83 -100 83 20 L83 420 L83 490 L83 500 L75 500 L45 490 L43 490 L43 489 L43 489 Z " />
<glyph glyph-name="k" unicode="k" horiz-adv-x="365" d="M338 70 L338 70 L134 297 L280 430 L297 445 C327 472 354 495 355 495 L356 495 C356 495 357 496 357 497 C357 498 357 499 357 499 L358 500 L349 500 L340 500 L336 500 C336 500 336 499 335 497 L335 495 L319 480 C309 471 296 459 282 446 L101 276 L101 641 L101 711 L101 721 L93 721 L63 711 L61 711 L61 710 L57 709 L57 706 L58 705 C60 698 61 676 61 630 L61 71 C61 38 59 6 58 6 L57 6 L57 4 L57 1 L61 1 L81 1 L101 1 L105 1 L105 4 L105 6 L104 6 C102 6 101 38 101 71 L101 276 L105 271 L105 271 L288 71 L288 71 C298 60 308 50 317 41 L349 6 L349 5 C350 3 350 2 350 2 L353 2 L378 2 L403 2 L403 5 L403 7 L402 7 C400 7 370 39 340 72 L338 70 L338 70 Z " />
<glyph glyph-name="l" unicode="l" horiz-adv-x="137" d="M69 0 L89 0 L93 0 L93 3 L93 5 L92 5 C90 5 89 37 89 70 L89 640 L89 710 L89 720 L81 720 L51 710 L49 710 L49 709 L45 708 L45 705 L46 704 C48 697 49 675 49 629 L49 70 C49 37 47 5 46 5 L45 5 L45 3 L45 0 L49 0 L69 0 L69 0 Z " />
<glyph glyph-name="m" unicode="m" horiz-adv-x="779" d="M696 54 C695 28 693 6 691 6 L691 4 L691 1 L695 1 L715 1 L735 1 L738 1 L738 4 L738 6 C737 6 736 18 735 35 L735 71 L735 337 C735 422 669 506 607 506 C528 506 436 458 398 406 C376 462 332 506 290 506 C215 506 125 456 88 403 L88 421 L88 501 L80 501 L44 489 L44 486 L44 485 C47 478 48 456 48 410 L48 71 C48 38 46 6 44 6 L44 4 L44 1 L48 1 L68 1 L88 1 L91 1 L91 4 L91 6 C90 6 89 18 88 35 L88 71 L88 397 C118 441 195 482 258 482 C312 482 371 408 371 333 L371 71 C371 38 369 6 368 6 L367 6 L367 4 L367 1 L371 1 L391 1 L411 1 L415 1 L415 4 L415 6 L414 6 C413 6 411 38 411 71 L411 337 C411 358 407 379 400 399 C431 441 509 479 577 479 C633 479 694 407 694 333 L696 54 L696 54 Z " />
<glyph glyph-name="n" unicode="n" horiz-adv-x="445" d="M362 70 C362 37 360 5 359 5 L358 5 L358 3 L358 0 L362 0 L382 0 L402 0 L406 0 L406 3 L406 5 L405 5 C404 5 402 37 402 70 L402 336 C402 421 356 505 284 505 C219 505 126 455 89 402 L89 420 L89 500 L81 500 L45 488 L45 485 L45 484 C48 477 49 455 49 409 L49 70 C49 37 47 5 45 5 L45 3 L45 0 L49 0 L69 0 L89 0 L92 0 L92 3 L92 5 C91 5 90 17 89 34 L89 70 L89 396 C119 438 198 478 253 478 C319 478 362 406 362 332 L362 70 L362 70 Z " />
<glyph glyph-name="o" unicode="o" horiz-adv-x="556" d="M278 4 C185 4 94 126 94 250 C94 374 185 496 278 496 C371 496 462 374 462 250 C462 126 371 4 278 4 L278 4 Z M50 250 C50 121 163 -5 278 -5 C394 -5 507 121 507 250 C507 379 394 505 278 505 C163 505 50 379 50 250 L50 250 Z " />
<glyph glyph-name="p" unicode="p" horiz-adv-x="529" d="M69 -230 L89 -230 L92 -230 L92 -227 L92 -225 C91 -225 90 -213 89 -196 L89 -160 L89 80 C121 31 182 -5 243 -5 C360 -5 475 124 475 256 C475 382 378 505 279 505 C194 505 110 456 89 401 L89 420 L83 500 L75 500 L45 488 L45 485 L45 484 C48 477 49 455 49 409 L49 -160 C49 -193 47 -225 45 -225 L45 -227 L45 -230 L49 -230 L69 -230 L69 -230 Z M89 151 L89 387 C104 436 175 478 248 478 C343 478 435 353 435 225 C435 114 340 6 243 6 C165 6 89 78 89 151 L89 151 Z " />
<glyph glyph-name="q" unicode="q" horiz-adv-x="513" d="M445 -230 L465 -230 L469 -230 L469 -227 L469 -225 L468 -225 C467 -225 465 -193 465 -160 L465 353 L465 500 L461 500 C457 487 443 474 432 474 C391 474 331 505 277 505 C171 505 68 367 68 226 C68 109 158 -5 250 -5 C313 -5 395 33 425 74 L425 -160 C425 -193 423 -225 422 -225 L421 -225 L421 -227 L421 -230 L425 -230 L445 -230 L445 -230 Z M425 84 C406 51 331 19 272 19 C190 19 109 129 109 241 C109 369 192 494 277 494 C352 494 425 424 425 353 L425 84 L425 84 Z " />
<glyph glyph-name="r" unicode="r" horiz-adv-x="310" d="M69 0 L89 0 L92 0 L92 3 L92 5 C91 5 90 17 89 34 L89 70 L89 385 C109 433 156 475 190 475 C215 475 256 451 281 451 C291 451 300 460 300 470 C300 488 269 505 222 505 C176 505 114 450 89 390 L89 420 L83 500 L75 500 L45 488 L45 485 L45 484 C48 477 49 455 49 409 L49 70 C49 37 47 5 45 5 L45 3 L45 0 L49 0 L69 0 L69 0 Z " />
<glyph glyph-name="s" unicode="s" horiz-adv-x="392" d="M307 432 C308 431 309 430 310 429 L311 429 C312 428 313 427 314 426 C315 425 316 425 316 424 L318 424 L320 424 L320 437 L315 432 L315 432 L320 437 C293 470 232 503 197 503 C132 503 68 441 68 378 C68 335 132 264 197 234 C254 208 310 150 310 116 C310 59 260 2 209 2 C190 2 167 6 145 13 L145 13 C124 19 86 40 63 57 C62 59 61 61 60 63 L59 62 C58 63 57 64 56 65 C55 66 53 68 52 68 L50 68 L48 68 L48 55 L54 60 L54 60 L48 55 C74 24 152 -6 206 -6 C275 -6 343 62 343 132 C343 171 285 236 225 263 C161 292 98 357 98 393 C98 445 147 495 197 495 C210 495 228 488 247 478 C245 477 270 458 307 432 L307 432 Z " />
<glyph glyph-name="t" unicode="t" horiz-adv-x="321" d="M290 500 L140 500 L140 640 L133 640 L103 496 L103 496 L115 556 C108 527 66 494 28 490 L25 490 L25 485 L100 485 L100 112 C100 36 127 -4 177 -4 C214 -4 267 40 301 85 L298 88 C269 50 226 14 197 14 C159 14 139 45 139 105 L140 485 L290 485 L290 500 L290 500 Z " />
<glyph glyph-name="u" unicode="u" horiz-adv-x="410" d="M332 430 L332 82 C313 50 256 20 192 20 C117 20 58 89 58 159 L59 499 L39 499 L19 499 L15 499 L15 496 L15 494 C17 494 19 462 19 429 L19 155 C19 74 82 -6 160 -6 C235 -6 304 32 332 73 L332 9 L332 -1 L340 -1 L370 9 L372 9 L372 10 L376 11 L376 14 L375 15 C373 22 372 44 372 90 L372 499 L352 499 L332 499 L328 499 L328 496 L328 494 L329 494 C330 494 332 462 332 429 L332 430 L332 430 Z " />
<glyph glyph-name="v" unicode="v" horiz-adv-x="405" d="M344 430 L344 430 L218 42 L99 430 L99 430 C88 463 80 495 81 495 L81 497 L81 500 L77 500 L54 500 L31 500 L29 500 L29 497 L29 495 L30 495 C31 495 37 481 44 462 L201 -10 L207 -10 L364 454 C372 477 380 495 381 495 L381 497 L381 500 L379 500 L372 500 L366 500 L362 500 L362 497 L362 495 C363 495 354 463 343 430 L344 430 L344 430 Z " />
<glyph glyph-name="w" unicode="w" horiz-adv-x="625" d="M571 454 L438 42 L304 478 C301 489 300 494 301 494 L302 494 L302 496 L302 499 L297 499 L276 499 L251 499 L250 499 L250 496 L250 494 L251 494 C252 494 257 481 267 453 L309 326 L224 43 L91 478 C88 490 87 495 88 495 L89 495 L89 497 L89 500 L84 500 L63 500 L38 500 L37 500 L37 497 L37 495 L38 495 C39 495 42 488 47 473 L208 -10 L214 -10 L314 312 L421 -10 L427 -10 L571 414 L571 414 C572 417 573 420 574 423 L592 475 C597 489 600 496 601 496 L602 496 L602 498 L602 501 L601 501 L592 501 L587 501 L582 501 L582 498 L582 496 L583 496 C584 496 581 484 572 456 L571 454 L571 454 Z " />
<glyph glyph-name="x" unicode="x" horiz-adv-x="445" d="M97 70 L96 70 L203 250 L327 70 L326 70 C349 37 371 5 371 5 L371 3 L371 0 L375 0 L399 0 L423 0 L423 3 L423 5 L422 5 C421 5 398 37 375 70 L375 70 L226 286 L336 456 C351 478 363 495 364 495 L364 497 L364 500 L357 500 L351 500 L346 500 L346 497 L346 495 L347 495 C348 495 342 486 333 472 L322 454 C317 446 312 438 307 430 L307 430 L221 292 L85 490 C83 493 82 495 82 495 L82 497 L82 500 L78 500 L53 500 L29 500 C28 500 29 499 29 497 L29 495 C31 495 54 463 77 430 L77 430 L196 258 L83 70 C63 37 42 5 40 5 L39 5 L39 3 L39 0 L41 0 L47 0 L53 0 L59 0 L59 3 L59 5 C57 5 75 37 95 70 L97 70 L97 70 Z " />
<glyph glyph-name="y" unicode="y" horiz-adv-x="370" d="M316 430 L316 430 L190 42 L71 430 L71 430 C60 463 52 495 53 495 L53 497 L53 500 L49 500 L26 500 L3 500 L1 500 L1 497 L1 495 L2 495 C3 495 9 481 16 462 L171 -4 L148 -68 C120 -151 85 -204 59 -204 C42 -204 17 -180 0 -180 C-10 -180 -20 -188 -20 -197 C-20 -214 7 -230 34 -230 C77 -230 126 -168 158 -72 L179 -10 L336 454 C344 477 352 495 353 495 L353 497 L353 500 L351 500 L344 500 L338 500 L334 500 L334 497 L334 495 C335 495 326 463 315 430 L316 430 L316 430 Z " />
<glyph glyph-name="z" unicode="z" horiz-adv-x="419" d="M360 5 C361 7 362 13 362 16 L361 16 C359 17 356 17 356 17 L354 16 C348 12 298 9 253 9 L76 9 L369 500 L346 500 L323 500 L106 500 L46 500 L36 500 L34 495 C34 493 33 489 32 486 L36 486 L39 487 C46 489 93 491 133 491 L318 491 L24 0 L48 0 L71 0 L290 0 L358 0 L360 0 L360 5 L360 5 Z " />
<glyph glyph-name="braceleft" unicode="&#x7b;" horiz-adv-x="219" d="M205 -120 L205 -113 L174 -113 C128 -113 83 -61 83 -8 L83 181 C83 222 56 263 26 270 C56 277 83 318 83 360 L83 548 C83 601 128 653 174 653 L205 653 L205 660 L165 660 C108 660 52 605 52 548 L52 338 C52 305 31 273 9 273 L5 273 L5 267 L9 267 C31 267 52 235 52 203 L52 -8 C52 -65 108 -120 165 -120 L205 -120 L205 -120 Z " />
<glyph glyph-name="bar" unicode="&#x7c;" horiz-adv-x="151" d="M60 770 L60 -234 L91 -234 L91 770 L60 770 L60 770 Z " />
<glyph glyph-name="braceright" unicode="&#x7d;" horiz-adv-x="219" d="M5 660 L5 653 L36 653 C82 653 127 601 127 548 L127 359 C127 318 154 277 184 270 C154 263 127 222 127 180 L127 -8 C127 -61 82 -113 36 -113 L5 -113 L5 -120 L45 -120 C102 -120 158 -65 158 -8 L158 202 C158 235 179 267 201 267 L205 267 L205 273 L201 273 C179 273 158 305 158 337 L158 548 C158 605 102 660 45 660 L5 660 L5 660 Z " />
<glyph glyph-name="asciitilde" unicode="&#x7e;" horiz-adv-x="480" d="M122 175 C122 209 139 243 156 243 C203 243 269 181 315 181 C342 181 368 224 368 267 L361 267 C361 237 343 207 324 207 C278 207 212 270 165 270 C140 270 115 223 115 175 L122 175 L122 175 Z " />
<glyph glyph-name="nbspace" unicode="&#xa0;" horiz-adv-x="187" d="" />
<glyph glyph-name="exclamdown" unicode="&#xa1;" horiz-adv-x="170" d="M82 505 C67 505 53 491 53 476 C53 461 67 447 82 447 C96 447 111 461 111 476 C111 491 96 505 82 505 L82 505 Z M60 -120 C59 -143 71 -165 84 -165 C98 -165 110 -143 109 -120 L84 372 L79 372 L60 -120 L60 -120 Z " />
<glyph glyph-name="cent" unicode="&#xa2;" horiz-adv-x="438" d="M252 575 L252 503 C148 488 50 363 50 236 C50 114 133 -5 219 -5 C229 -5 240 -3 252 0 L252 -75 L265 -75 L265 4 C312 21 364 58 388 96 L383 99 C361 63 307 27 267 20 L267 494 C268 494 269 494 270 494 C307 494 348 449 352 403 C353 394 363 384 372 384 C381 384 390 393 390 402 C385 454 328 505 274 505 C271 505 268 505 265 505 L265 575 L252 575 L252 575 Z M252 19 C171 19 92 134 92 252 C92 366 169 478 252 492 L252 19 L252 19 Z " />
<glyph glyph-name="guillemotleft" unicode="&#xab;" horiz-adv-x="405" d="M205 250 L359 460 L355 464 L164 252 L164 248 L356 36 L360 40 L205 250 L205 250 Z M61 250 L215 460 L210 464 L20 252 L20 248 L211 36 L216 40 L61 250 L61 250 Z " />
<glyph glyph-name="guillemotright" unicode="&#xbb;" horiz-adv-x="405" d="M200 250 L46 460 L50 464 L241 252 L241 248 L49 36 L45 40 L200 250 L200 250 Z M344 250 L191 460 L195 464 L385 252 L385 248 L194 36 L189 40 L344 250 L344 250 Z " />
<glyph glyph-name="onequarter" unicode="&#xbc;" horiz-adv-x="694" d="M57 -13 L654 657 L637 673 L40 3 L57 -13 L57 -13 Z M421 65 L532 239 L532 65 L421 65 L421 65 Z M532 50 L532 -3 L566 -3 L566 50 L613 50 L613 65 L566 65 L566 239 L566 292 L566 302 L560 302 L403 55 L403 50 L410 50 L411 50 L532 50 L532 50 Z M100 415 L117 415 L119 415 L119 416 L119 418 C118 418 117 434 117 450 L117 630 C117 646 118 662 119 662 L119 664 L119 665 L117 665 L100 665 L83 665 L81 665 L81 664 L81 662 L82 662 C82 662 83 646 83 630 L83 450 C83 434 82 418 82 418 L81 418 L81 416 L81 415 L83 415 L100 415 L100 415 Z " />
<glyph glyph-name="onehalf" unicode="&#xbd;" horiz-adv-x="694" d="M57 -13 L654 657 L637 673 L40 3 L57 -13 L57 -13 Z M605 33 L605 34 L605 34 C605 35 605 36 605 37 L604 37 L603 37 C603 36 587 35 570 35 L457 35 C532 86 594 133 594 176 C594 215 558 254 520 254 C490 254 445 217 430 180 L434 178 C444 203 479 228 503 228 C530 228 556 197 556 165 C556 105 482 60 407 9 L407 1 L602 1 L604 18 L605 18 C605 22 606 29 606 34 L605 33 L605 33 Z M101 416 L118 416 L120 416 L120 417 L120 419 C119 419 118 435 118 451 L118 631 C118 647 119 663 120 663 L120 665 L120 666 L118 666 L101 666 L84 666 L82 666 L82 665 L82 663 L83 663 C83 663 84 647 84 631 L84 451 C84 435 83 419 83 419 L82 419 L82 417 L82 416 L84 416 L101 416 L101 416 Z " />
<glyph glyph-name="threequarters" unicode="&#xbe;" horiz-adv-x="694" d="M56 340 C145 346 233 403 234 457 C233 493 187 529 137 533 C180 556 213 586 213 607 C213 638 181 668 148 668 C116 668 67 636 48 603 L52 601 C65 622 103 643 130 643 C155 643 179 619 179 596 C179 574 144 542 103 524 C97 521 90 518 82 515 L82 509 C83 509 84 509 85 509 C94 512 109 514 118 514 C158 514 198 484 198 454 C198 403 127 349 55 344 L56 340 L56 340 Z M57 -14 L654 656 L637 672 L40 2 L57 -14 L57 -14 Z M421 64 L532 238 L532 64 L421 64 L421 64 Z M532 49 L532 -4 L566 -4 L566 49 L613 49 L613 64 L566 64 L566 238 L566 291 L566 301 L560 301 L403 54 L403 49 L410 49 L411 49 L532 49 L532 49 Z " />
<glyph glyph-name="questiondown" unicode="&#xbf;" horiz-adv-x="336" d="M205 505 C190 505 176 491 176 476 C176 461 190 447 205 447 C219 447 234 461 234 476 C234 491 219 505 205 505 L205 505 Z M194 164 L159 164 C71 164 35 85 35 51 C35 -58 126 -165 219 -165 C257 -165 294 -131 294 -97 C294 -93 283 -89 271 -89 C247 -89 231 -134 207 -134 C125 -134 44 -45 44 46 C44 73 82 134 173 134 L208 134 C212 134 217 137 217 140 L208 367 L202 367 L194 164 L194 164 Z " />
<glyph glyph-name="Agrave" unicode="&#xc0;" horiz-adv-x="495" d="M454 70 L453 70 L241 675 L227 675 L34 70 L34 70 C23 37 11 5 10 5 L9 5 L9 3 L9 0 L12 0 L21 0 L31 0 L36 0 L36 3 L36 5 C35 5 38 21 44 43 L112 260 L328 260 L406 28 C410 14 413 5 412 5 L411 5 L411 3 L411 0 L415 0 L447 0 L478 0 L481 0 L481 3 L481 5 C479 5 465 37 454 70 L454 70 Z M216 837 C198 865 177 893 175 893 C169 893 152 881 152 877 C152 873 174 846 196 821 L308 691 L312 695 L216 837 L216 837 Z M323 275 L117 275 L216 594 L323 275 L323 275 Z " />
<glyph glyph-name="Aacute" unicode="&#xc1;" horiz-adv-x="495" d="M171 691 L280 821 C302 847 323 874 323 877 C323 881 306 893 300 893 C299 893 279 865 260 837 L167 695 L171 691 L171 691 Z M454 70 L453 70 L241 675 L227 675 L34 70 L34 70 C23 37 11 5 10 5 L9 5 L9 3 L9 0 L12 0 L21 0 L31 0 L36 0 L36 3 L36 5 C35 5 38 21 44 43 L112 260 L328 260 L406 28 C410 14 413 5 412 5 L411 5 L411 3 L411 0 L415 0 L447 0 L478 0 L481 0 L481 3 L481 5 C479 5 465 37 454 70 L454 70 Z M323 275 L117 275 L216 594 L323 275 L323 275 Z " />
<glyph glyph-name="Acircumflex" unicode="&#xc2;" horiz-adv-x="495" d="M454 70 L453 70 L241 675 L227 675 L34 70 L34 70 C23 37 11 5 10 5 L9 5 L9 3 L9 0 L12 0 L21 0 L31 0 L36 0 L36 3 L36 5 C35 5 38 21 44 43 L112 260 L328 260 L406 28 C410 14 413 5 412 5 L411 5 L411 3 L411 0 L415 0 L447 0 L478 0 L481 0 L481 3 L481 5 C479 5 465 37 454 70 L454 70 Z M234 861 L342 694 L346 697 L247 893 C245 896 239 905 234 905 C229 905 223 897 221 894 L123 697 L127 694 L234 861 L234 861 Z M323 275 L117 275 L216 594 L323 275 L323 275 Z " />
<glyph glyph-name="Atilde" unicode="&#xc3;" horiz-adv-x="495" d="M112 755 C112 789 131 823 151 823 C197 823 261 761 306 761 C334 761 362 804 362 847 L356 847 C356 817 336 787 315 787 C269 787 205 850 160 850 C133 850 106 803 106 755 L112 755 L112 755 Z M454 70 L453 70 L241 675 L227 675 L34 70 L34 70 C23 37 11 5 10 5 L9 5 L9 3 L9 0 L12 0 L21 0 L31 0 L36 0 L36 3 L36 5 C35 5 38 21 44 43 L112 260 L328 260 L406 28 C410 14 413 5 412 5 L411 5 L411 3 L411 0 L415 0 L447 0 L478 0 L481 0 L481 3 L481 5 C479 5 465 37 454 70 L454 70 Z M323 275 L117 275 L216 594 L323 275 L323 275 Z " />
<glyph glyph-name="Adieresis" unicode="&#xc4;" horiz-adv-x="495" d="M320 730 C333 730 345 742 345 754 C345 767 333 779 320 779 C308 779 296 767 296 754 C296 742 308 730 320 730 L320 730 Z M148 730 C160 730 172 742 172 754 C172 767 160 779 148 779 C136 779 124 767 124 754 C124 742 136 730 148 730 L148 730 Z M454 70 L453 70 L241 675 L227 675 L34 70 L34 70 C23 37 11 5 10 5 L9 5 L9 3 L9 0 L12 0 L21 0 L31 0 L36 0 L36 3 L36 5 C35 5 38 21 44 43 L112 260 L328 260 L406 28 C410 14 413 5 412 5 L411 5 L411 3 L411 0 L415 0 L447 0 L478 0 L481 0 L481 3 L481 5 C479 5 465 37 454 70 L454 70 Z M323 275 L117 275 L216 594 L323 275 L323 275 Z " />
<glyph glyph-name="Aring" unicode="&#xc5;" horiz-adv-x="495" d="M234 704 C196 704 151 750 151 788 C151 830 192 871 234 871 C276 871 317 830 317 788 C317 750 272 704 234 704 L234 704 Z M140 788 C140 745 191 695 234 695 C277 695 328 745 328 788 C328 834 282 880 234 880 C187 880 140 834 140 788 L140 788 Z M454 70 L453 70 L241 675 L227 675 L34 70 L34 70 C23 37 11 5 10 5 L9 5 L9 3 L9 0 L12 0 L21 0 L31 0 L36 0 L36 3 L36 5 C35 5 38 21 44 43 L112 260 L328 260 L406 28 C410 14 413 5 412 5 L411 5 L411 3 L411 0 L415 0 L447 0 L478 0 L481 0 L481 3 L481 5 C479 5 465 37 454 70 L454 70 Z M323 275 L117 275 L216 594 L323 275 L323 275 Z " />
<glyph glyph-name="Ccedilla" unicode="&#xc7;" horiz-adv-x="689" d="M351 -85 L390 -5 C478 -2 594 40 630 83 L630 99 L627 99 L625 99 L621 95 C620 94 619 93 618 92 L618 92 C617 91 616 90 615 89 C584 64 513 32 465 21 L465 21 C436 14 406 10 380 10 C251 10 124 169 124 331 C124 493 251 652 380 652 C423 652 474 642 518 626 C550 613 592 589 613 571 C614 570 615 569 616 568 L616 568 C617 567 618 566 619 565 L623 561 L625 561 L628 561 L628 577 C591 621 468 664 379 664 C218 664 59 498 59 329 C59 161 216 -4 376 -7 L343 -95 L346 -96 C361 -89 388 -81 401 -81 C428 -81 455 -109 455 -137 C455 -174 424 -210 393 -210 C364 -210 326 -202 314 -194 L313 -198 C329 -210 373 -222 401 -222 C441 -222 480 -180 480 -137 C480 -104 445 -73 410 -73 C393 -73 364 -80 350 -88 L351 -85 L351 -85 Z " />
<glyph glyph-name="Egrave" unicode="&#xc8;" horiz-adv-x="414" d="M168 837 C149 865 129 893 126 893 C120 893 103 881 103 877 C103 873 125 846 147 821 L259 691 L264 695 L168 837 L168 837 Z M373 7 C374 11 375 18 376 21 L372 21 L370 20 C363 18 307 15 256 14 L98 14 L98 380 L209 380 C252 380 297 378 301 376 L302 376 L305 376 L306 376 L306 380 L306 387 L306 394 L306 398 L305 398 L302 398 L301 398 C297 396 252 395 209 394 L98 394 L98 646 L248 646 C299 646 354 643 361 640 L363 639 L366 639 L366 653 L366 660 L361 660 L296 660 L98 660 L69 660 L41 660 L37 660 L37 657 L37 655 C39 655 41 623 41 590 L41 70 C41 37 39 5 37 5 L37 3 L37 0 L41 0 L69 0 L98 0 L302 0 L371 0 L372 0 L373 7 L373 7 Z " />
<glyph glyph-name="Eacute" unicode="&#xc9;" horiz-adv-x="414" d="M169 691 L278 821 C299 847 321 874 320 877 C320 881 303 893 298 893 C296 893 276 865 257 837 L164 695 L169 691 L169 691 Z M373 7 C374 11 375 18 376 21 L372 21 L370 20 C363 18 307 15 256 14 L98 14 L98 380 L209 380 C252 380 297 378 301 376 L302 376 L305 376 L306 376 L306 380 L306 387 L306 394 L306 398 L305 398 L302 398 L301 398 C297 396 252 395 209 394 L98 394 L98 646 L248 646 C299 646 354 643 361 640 L363 639 L366 639 L366 653 L366 660 L361 660 L296 660 L98 660 L69 660 L41 660 L37 660 L37 657 L37 655 C39 655 41 623 41 590 L41 70 C41 37 39 5 37 5 L37 3 L37 0 L41 0 L69 0 L98 0 L302 0 L371 0 L372 0 L373 7 L373 7 Z " />
<glyph glyph-name="Ecircumflex" unicode="&#xca;" horiz-adv-x="414" d="M201 862 L309 694 L313 697 L215 893 C213 896 207 905 202 905 C197 905 191 897 189 894 L90 697 L94 694 L201 862 L201 862 Z M374 7 C375 11 376 18 377 21 L373 21 L371 20 C364 18 308 15 257 14 L99 14 L99 380 L210 380 C253 380 298 378 302 376 L303 376 L306 376 L307 376 L307 380 L307 387 L307 394 L307 398 L306 398 L303 398 L302 398 C298 396 253 395 210 394 L99 394 L99 646 L249 646 C300 646 355 643 362 640 L364 639 L367 639 L367 653 L367 660 L362 660 L297 660 L99 660 L70 660 L42 660 L38 660 L38 657 L38 655 C40 655 42 623 42 590 L42 70 C42 37 40 5 38 5 L38 3 L38 0 L42 0 L70 0 L99 0 L303 0 L372 0 L373 0 L374 7 L374 7 Z " />
<glyph glyph-name="Edieresis" unicode="&#xcb;" horiz-adv-x="414" d="M287 730 C299 730 311 742 311 754 C311 767 299 779 287 779 C274 779 262 767 262 754 C262 742 274 730 287 730 L287 730 Z M115 730 C127 730 139 742 139 754 C139 767 127 779 115 779 C102 779 90 767 90 754 C90 742 102 730 115 730 L115 730 Z M373 7 C374 11 375 18 376 21 L372 21 L370 20 C363 18 307 15 256 14 L98 14 L98 380 L209 380 C252 380 297 378 301 376 L302 376 L305 376 L306 376 L306 380 L306 387 L306 394 L306 398 L305 398 L302 398 L301 398 C297 396 252 395 209 394 L98 394 L98 646 L248 646 C299 646 354 643 361 640 L363 639 L366 639 L366 653 L366 660 L361 660 L296 660 L98 660 L69 660 L41 660 L37 660 L37 657 L37 655 C39 655 41 623 41 590 L41 70 C41 37 39 5 37 5 L37 3 L37 0 L41 0 L69 0 L98 0 L302 0 L371 0 L372 0 L373 7 L373 7 Z " />
<glyph glyph-name="Igrave" unicode="&#xcc;" horiz-adv-x="138" d="M48 837 C30 865 9 893 7 893 C1 893 -16 881 -16 877 C-16 873 6 846 28 821 L140 691 L144 695 L48 837 L48 837 Z M66 0 L95 0 L99 0 L99 3 L99 5 L98 5 C97 5 95 37 95 70 L95 590 C95 623 97 655 98 655 L99 655 L99 657 L99 660 L95 660 L66 660 L37 660 L33 660 L33 657 L33 655 L34 655 C35 655 37 623 37 590 L37 70 C37 37 35 5 34 5 L33 5 L33 3 L33 0 L37 0 L66 0 L66 0 Z " />
<glyph glyph-name="Iacute" unicode="&#xcd;" horiz-adv-x="138" d="M3 691 L112 821 C134 847 155 874 155 877 C155 881 138 893 132 893 C131 893 111 865 92 837 L-1 695 L3 691 L3 691 Z M66 0 L95 0 L99 0 L99 3 L99 5 L98 5 C97 5 95 37 95 70 L95 590 C95 623 97 655 98 655 L99 655 L99 657 L99 660 L95 660 L66 660 L37 660 L33 660 L33 657 L33 655 L34 655 C35 655 37 623 37 590 L37 70 C37 37 35 5 34 5 L33 5 L33 3 L33 0 L37 0 L66 0 L66 0 Z " />
<glyph glyph-name="Icircumflex" unicode="&#xce;" horiz-adv-x="138" d="M66 861 L174 694 L178 697 L79 893 C77 896 71 905 66 905 C61 905 55 897 53 894 L-45 697 L-41 694 L66 861 L66 861 Z M66 0 L95 0 L99 0 L99 3 L99 5 L98 5 C97 5 95 37 95 70 L95 590 C95 623 97 655 98 655 L99 655 L99 657 L99 660 L95 660 L66 660 L37 660 L33 660 L33 657 L33 655 L34 655 C35 655 37 623 37 590 L37 70 C37 37 35 5 34 5 L33 5 L33 3 L33 0 L37 0 L66 0 L66 0 Z " />
<glyph glyph-name="Idieresis" unicode="&#xcf;" horiz-adv-x="138" d="M152 730 C165 730 177 742 177 754 C177 767 165 779 152 779 C140 779 128 767 128 754 C128 742 140 730 152 730 L152 730 Z M-20 730 C-8 730 4 742 4 754 C4 767 -8 779 -20 779 C-32 779 -44 767 -44 754 C-44 742 -32 730 -20 730 L-20 730 Z M66 0 L95 0 L99 0 L99 3 L99 5 L98 5 C97 5 95 37 95 70 L95 590 C95 623 97 655 98 655 L99 655 L99 657 L99 660 L95 660 L66 660 L37 660 L33 660 L33 657 L33 655 L34 655 C35 655 37 623 37 590 L37 70 C37 37 35 5 34 5 L33 5 L33 3 L33 0 L37 0 L66 0 L66 0 Z " />
<glyph glyph-name="Ntilde" unicode="&#xd1;" horiz-adv-x="521" d="M145 755 C145 789 164 823 184 823 C229 823 293 761 339 761 C367 761 395 804 395 847 L388 847 C388 817 368 787 347 787 C302 787 238 850 192 850 C165 850 138 803 138 755 L145 755 L145 755 Z M469 590 L469 71 L103 660 L64 660 L55 660 L47 660 L43 660 L43 657 L43 655 C45 655 47 623 47 590 L47 70 C47 37 45 5 43 5 L43 3 L43 0 L47 0 L55 0 L64 0 L68 0 L68 3 L68 5 L67 5 C66 5 64 37 64 70 L64 614 L443 8 L453 -9 L487 -9 L487 29 L487 590 L487 626 C488 643 489 655 490 655 L490 657 L490 660 L487 660 L478 660 L469 660 L465 660 L465 657 L465 655 L466 655 C468 655 469 623 469 590 L469 590 Z " />
<glyph glyph-name="Ograve" unicode="&#xd2;" horiz-adv-x="729" d="M370 9 C234 9 125 184 125 330 C125 476 234 651 370 651 C507 651 616 476 616 330 C616 184 507 9 370 9 L370 9 Z M61 330 C61 178 198 -5 370 -5 C542 -5 679 178 679 330 C679 482 542 665 370 665 C198 665 61 482 61 330 L61 330 Z M353 837 C334 865 313 893 311 893 C305 893 288 881 288 877 C288 873 310 846 332 821 L444 691 L449 695 L353 837 L353 837 Z " />
<glyph glyph-name="Oacute" unicode="&#xd3;" horiz-adv-x="729" d="M346 691 L455 821 C476 847 497 874 497 877 C497 881 480 893 475 893 C473 893 453 865 434 837 L341 695 L346 691 L346 691 Z M370 9 C234 9 125 184 125 330 C125 476 234 651 370 651 C507 651 616 476 616 330 C616 184 507 9 370 9 L370 9 Z M61 330 C61 178 198 -5 370 -5 C542 -5 679 178 679 330 C679 482 542 665 370 665 C198 665 61 482 61 330 L61 330 Z " />
<glyph glyph-name="Ocircumflex" unicode="&#xd4;" horiz-adv-x="729" d="M370 9 C234 9 125 184 125 330 C125 476 234 651 370 651 C507 651 616 476 616 330 C616 184 507 9 370 9 L370 9 Z M61 330 C61 178 198 -5 370 -5 C542 -5 679 178 679 330 C679 482 542 665 370 665 C198 665 61 482 61 330 L61 330 Z M371 862 L479 694 L483 697 L384 893 C383 896 376 905 371 905 C366 905 360 897 359 894 L260 697 L264 694 L371 862 L371 862 Z " />
<glyph glyph-name="Otilde" unicode="&#xd5;" horiz-adv-x="729" d="M249 755 C249 789 268 823 287 823 C333 823 397 761 442 761 C471 761 499 804 499 847 L492 847 C492 817 472 787 451 787 C406 787 341 850 296 850 C269 850 242 803 242 755 L249 755 L249 755 Z M370 9 C234 9 125 184 125 330 C125 476 234 651 370 651 C507 651 616 476 616 330 C616 184 507 9 370 9 L370 9 Z M61 330 C61 178 198 -5 370 -5 C542 -5 679 178 679 330 C679 482 542 665 370 665 C198 665 61 482 61 330 L61 330 Z " />
<glyph glyph-name="Odieresis" unicode="&#xd6;" horiz-adv-x="729" d="M456 730 C469 730 481 742 481 754 C481 767 469 779 456 779 C444 779 432 767 432 754 C432 742 444 730 456 730 L456 730 Z M284 730 C297 730 309 742 309 754 C309 767 297 779 284 779 C272 779 260 767 260 754 C260 742 272 730 284 730 L284 730 Z M370 9 C234 9 125 184 125 330 C125 476 234 651 370 651 C507 651 616 476 616 330 C616 184 507 9 370 9 L370 9 Z M61 330 C61 178 198 -5 370 -5 C542 -5 679 178 679 330 C679 482 542 665 370 665 C198 665 61 482 61 330 L61 330 Z " />
<glyph glyph-name="Oslash" unicode="&#xd8;" horiz-adv-x="729" d="M71 -14 L166 89 C220 33 291 -5 370 -5 C542 -5 679 178 679 330 C679 405 646 487 592 551 L689 656 L670 674 L574 570 C520 626 449 664 370 664 C198 664 61 481 61 329 C61 254 94 172 148 108 L52 3 L71 -14 L71 -14 Z M370 8 C300 8 238 54 194 118 L562 517 C596 460 616 392 616 329 C616 183 507 8 370 8 L370 8 Z M179 141 C145 198 125 266 125 329 C125 475 234 650 370 650 C440 650 503 604 548 540 L179 141 L179 141 Z " />
<glyph glyph-name="Ugrave" unicode="&#xd9;" horiz-adv-x="504" d="M245 837 C226 865 205 893 203 893 C197 893 180 881 180 877 C180 873 202 846 224 821 L336 691 L341 695 L245 837 L245 837 Z M44 590 L44 206 C44 99 132 -5 267 -5 C396 -5 480 84 480 176 L480 580 C480 618 482 655 484 655 L485 655 C484 655 484 656 485 657 C484 659 484 660 485 660 L480 660 L474 660 L467 660 L462 660 L462 657 L462 655 L463 655 C465 655 467 618 467 580 L467 180 C467 97 391 15 275 15 C170 15 102 104 102 194 L102 590 C102 623 104 655 105 655 L106 655 L106 657 L106 660 L102 660 L73 660 L44 660 L41 660 L41 657 L41 655 C43 655 44 623 44 590 L44 590 Z " />
<glyph glyph-name="Uacute" unicode="&#xda;" horiz-adv-x="504" d="M260 691 L369 821 C391 847 412 874 412 877 C412 881 395 893 389 893 C388 893 368 865 349 837 L256 695 L260 691 L260 691 Z M44 590 L44 206 C44 99 132 -5 267 -5 C396 -5 480 84 480 176 L480 580 C480 618 482 655 484 655 L485 655 C484 655 484 656 485 657 C484 659 484 660 485 660 L480 660 L474 660 L467 660 L462 660 L462 657 L462 655 L463 655 C465 655 467 618 467 580 L467 180 C467 97 391 15 275 15 C170 15 102 104 102 194 L102 590 C102 623 104 655 105 655 L106 655 L106 657 L106 660 L102 660 L73 660 L44 660 L41 660 L41 657 L41 655 C43 655 44 623 44 590 L44 590 Z " />
<glyph glyph-name="Ucircumflex" unicode="&#xdb;" horiz-adv-x="504" d="M263 862 L371 694 L375 697 L276 893 C275 896 268 905 263 905 C258 905 252 897 251 894 L152 697 L156 694 L263 862 L263 862 Z M45 590 L45 206 C45 99 133 -5 268 -5 C397 -5 481 84 481 176 L481 580 C481 618 483 655 485 655 L486 655 C485 655 485 656 486 657 C485 659 485 660 486 660 L481 660 L475 660 L468 660 L463 660 L463 657 L463 655 L464 655 C466 655 468 618 468 580 L468 180 C468 97 392 15 276 15 C171 15 103 104 103 194 L103 590 C103 623 105 655 106 655 L107 655 L107 657 L107 660 L103 660 L74 660 L45 660 L42 660 L42 657 L42 655 C44 655 45 623 45 590 L45 590 Z " />
<glyph glyph-name="Udieresis" unicode="&#xdc;" horiz-adv-x="504" d="M348 730 C361 730 373 742 373 754 C373 767 361 779 348 779 C336 779 324 767 324 754 C324 742 336 730 348 730 L348 730 Z M176 730 C189 730 201 742 201 754 C201 767 189 779 176 779 C164 779 152 767 152 754 C152 742 164 730 176 730 L176 730 Z M44 590 L44 206 C44 99 132 -5 267 -5 C396 -5 480 84 480 176 L480 580 C480 618 482 655 484 655 L485 655 C484 655 484 656 485 657 C484 659 484 660 485 660 L480 660 L474 660 L467 660 L462 660 L462 657 L462 655 L463 655 C465 655 467 618 467 580 L467 180 C467 97 391 15 275 15 C170 15 102 104 102 194 L102 590 C102 623 104 655 105 655 L106 655 L106 657 L106 660 L102 660 L73 660 L44 660 L41 660 L41 657 L41 655 C43 655 44 623 44 590 L44 590 Z " />
<glyph glyph-name="Yacute" unicode="&#xdd;" horiz-adv-x="482" d="M248 691 L357 821 C379 847 400 874 400 877 C400 881 383 893 377 893 C375 893 356 865 337 837 L244 695 L248 691 L248 691 Z M414 570 L414 570 L268 295 L255 295 L125 590 L125 590 C111 623 98 655 99 655 L99 657 L99 660 L94 660 L60 660 L25 660 L25 657 L25 655 C26 655 32 644 40 628 L220 265 L220 70 C220 37 218 5 217 5 L216 5 L216 3 L216 0 L220 0 L249 0 L278 0 L282 0 L282 3 L282 5 L281 5 C280 5 278 37 278 70 L278 295 L449 614 C462 637 473 655 474 655 L475 655 L475 657 L475 660 L474 660 L467 660 L461 660 L455 660 L455 657 L455 655 L456 655 C457 655 436 613 413 570 L414 570 L414 570 Z " />
<glyph glyph-name="agrave" unicode="&#xe0;" horiz-adv-x="448" d="M427 36 C413 22 391 9 374 9 C348 9 335 37 335 66 L335 361 C335 433 283 505 230 505 C125 505 47 439 71 372 L111 372 C89 434 143 494 221 494 C257 494 293 432 293 369 L293 269 L184 231 C109 205 35 141 35 101 C35 48 85 -5 137 -5 C179 -5 249 30 293 72 L293 62 C293 26 311 -10 346 -10 C375 -10 410 10 431 31 L427 36 L427 36 Z M186 677 C167 705 146 733 144 733 C138 733 121 721 121 717 C121 713 143 686 165 661 L277 531 L282 535 L186 677 L186 677 Z M293 259 L293 79 C256 48 196 22 156 22 C115 22 75 67 75 113 C75 146 129 198 184 219 L293 259 L293 259 Z " />
<glyph glyph-name="aacute" unicode="&#xe1;" horiz-adv-x="448" d="M171 531 L280 661 C302 687 323 714 323 717 C323 721 306 733 300 733 C299 733 279 705 260 677 L167 535 L171 531 L171 531 Z M427 36 C413 22 391 9 374 9 C348 9 335 37 335 66 L335 361 C335 433 283 505 230 505 C125 505 47 439 71 372 L111 372 C89 434 143 494 221 494 C257 494 293 432 293 369 L293 269 L184 231 C109 205 35 141 35 101 C35 48 85 -5 137 -5 C179 -5 249 30 293 72 L293 62 C293 26 311 -10 346 -10 C375 -10 410 10 431 31 L427 36 L427 36 Z M293 259 L293 79 C256 48 196 22 156 22 C115 22 75 67 75 113 C75 146 129 198 184 219 L293 259 L293 259 Z " />
<glyph glyph-name="acircumflex" unicode="&#xe2;" horiz-adv-x="448" d="M427 36 C413 22 391 9 374 9 C348 9 335 37 335 66 L335 361 C335 433 283 505 230 505 C125 505 47 439 71 372 L111 372 C89 434 143 494 221 494 C257 494 293 432 293 369 L293 269 L184 231 C109 205 35 141 35 101 C35 48 85 -5 137 -5 C179 -5 249 30 293 72 L293 62 C293 26 311 -10 346 -10 C375 -10 410 10 431 31 L427 36 L427 36 Z M203 701 L311 534 L315 537 L216 733 C214 736 208 745 203 745 C198 745 192 737 191 734 L92 537 L96 534 L203 701 L203 701 Z M293 259 L293 79 C256 48 196 22 156 22 C115 22 75 67 75 113 C75 146 129 198 184 219 L293 259 L293 259 Z " />
<glyph glyph-name="atilde" unicode="&#xe3;" horiz-adv-x="448" d="M82 595 C82 629 101 663 120 663 C166 663 230 601 275 601 C304 601 332 644 332 687 L325 687 C325 657 305 627 284 627 C239 627 174 690 129 690 C102 690 75 643 75 595 L82 595 L82 595 Z M427 36 C413 22 391 9 374 9 C348 9 335 37 335 66 L335 361 C335 433 283 505 230 505 C125 505 47 439 71 372 L111 372 C89 434 143 494 221 494 C257 494 293 432 293 369 L293 269 L184 231 C109 205 35 141 35 101 C35 48 85 -5 137 -5 C179 -5 249 30 293 72 L293 62 C293 26 311 -10 346 -10 C375 -10 410 10 431 31 L427 36 L427 36 Z M293 259 L293 79 C256 48 196 22 156 22 C115 22 75 67 75 113 C75 146 129 198 184 219 L293 259 L293 259 Z " />
<glyph glyph-name="adieresis" unicode="&#xe4;" horiz-adv-x="448" d="M289 570 C302 570 314 582 314 594 C314 607 302 619 289 619 C277 619 265 607 265 594 C265 582 277 570 289 570 L289 570 Z M117 570 C130 570 142 582 142 594 C142 607 130 619 117 619 C105 619 93 607 93 594 C93 582 105 570 117 570 L117 570 Z M427 36 C413 22 391 9 374 9 C348 9 335 37 335 66 L335 361 C335 433 283 505 230 505 C125 505 47 439 71 372 L111 372 C89 434 143 494 221 494 C257 494 293 432 293 369 L293 269 L184 231 C109 205 35 141 35 101 C35 48 85 -5 137 -5 C179 -5 249 30 293 72 L293 62 C293 26 311 -10 346 -10 C375 -10 410 10 431 31 L427 36 L427 36 Z M293 259 L293 79 C256 48 196 22 156 22 C115 22 75 67 75 113 C75 146 129 198 184 219 L293 259 L293 259 Z " />
<glyph glyph-name="aring" unicode="&#xe5;" horiz-adv-x="448" d="M203 544 C166 544 121 590 121 628 C121 670 162 711 203 711 C245 711 286 670 286 628 C286 590 241 544 203 544 L203 544 Z M109 628 C109 585 160 535 203 535 C246 535 297 585 297 628 C297 674 251 720 203 720 C156 720 109 674 109 628 L109 628 Z M427 36 C413 22 391 9 374 9 C348 9 335 37 335 66 L335 361 C335 433 283 505 230 505 C125 505 47 439 71 372 L111 372 C89 434 143 494 221 494 C257 494 293 432 293 369 L293 269 L184 231 C109 205 35 141 35 101 C35 48 85 -5 137 -5 C179 -5 249 30 293 72 L293 62 C293 26 311 -10 346 -10 C375 -10 410 10 431 31 L427 36 L427 36 Z M293 259 L293 79 C256 48 196 22 156 22 C115 22 75 67 75 113 C75 146 129 198 184 219 L293 259 L293 259 Z " />
<glyph glyph-name="ccedilla" unicode="&#xe7;" horiz-adv-x="438" d="M188 -85 L228 -4 C281 1 357 48 387 96 L382 99 C357 59 293 19 252 19 C171 19 92 134 92 252 C92 374 180 494 269 494 C306 494 347 449 351 403 C352 394 362 384 371 384 C380 384 389 393 389 402 C384 454 327 505 273 505 C161 505 50 372 50 236 C50 116 130 -1 214 -5 L181 -93 L184 -94 C199 -87 226 -79 239 -79 C267 -79 294 -107 294 -135 C294 -172 263 -208 231 -208 C203 -208 164 -200 152 -192 L151 -196 C168 -208 211 -220 239 -220 C279 -220 318 -178 318 -135 C318 -102 284 -71 248 -71 C232 -71 203 -78 188 -86 L188 -85 L188 -85 Z " />
<glyph glyph-name="egrave" unicode="&#xe8;" horiz-adv-x="445" d="M394 96 L389 99 C364 59 298 19 255 19 C173 19 92 134 92 252 C92 286 98 320 108 351 L358 351 L396 351 C396 429 321 505 244 505 C146 505 50 372 50 236 C50 114 135 -5 222 -5 C277 -5 362 45 394 96 L394 96 Z M226 677 C207 705 187 733 185 733 C179 733 162 721 162 717 C162 713 184 686 206 661 L318 531 L322 535 L226 677 L226 677 Z M111 359 C138 435 190 493 243 493 C301 493 359 439 359 384 C359 375 352 367 343 365 L111 359 L111 359 Z " />
<glyph glyph-name="eacute" unicode="&#xe9;" horiz-adv-x="445" d="M212 531 L321 661 C342 687 364 714 363 717 C363 721 346 733 341 733 C339 733 319 705 300 677 L207 535 L212 531 L212 531 Z M394 96 L389 99 C364 59 298 19 255 19 C173 19 92 134 92 252 C92 286 98 320 108 351 L358 351 L396 351 C396 429 321 505 244 505 C146 505 50 372 50 236 C50 114 135 -5 222 -5 C277 -5 362 45 394 96 L394 96 Z M111 359 C138 435 190 493 243 493 C301 493 359 439 359 384 C359 375 352 367 343 365 L111 359 L111 359 Z " />
<glyph glyph-name="ecircumflex" unicode="&#xea;" horiz-adv-x="445" d="M394 96 L389 99 C364 59 298 19 255 19 C173 19 92 134 92 252 C92 286 98 320 108 351 L358 351 L396 351 C396 429 321 505 244 505 C146 505 50 372 50 236 C50 114 135 -5 222 -5 C277 -5 362 45 394 96 L394 96 Z M244 701 L351 534 L355 537 L257 733 C255 736 249 745 244 745 C239 745 233 737 231 734 L132 537 L136 534 L244 701 L244 701 Z M111 359 C138 435 190 493 243 493 C301 493 359 439 359 384 C359 375 352 367 343 365 L111 359 L111 359 Z " />
<glyph glyph-name="edieresis" unicode="&#xeb;" horiz-adv-x="445" d="M330 570 C342 570 354 582 354 594 C354 607 342 619 330 619 C317 619 305 607 305 594 C305 582 317 570 330 570 L330 570 Z M158 570 C170 570 182 582 182 594 C182 607 170 619 158 619 C145 619 133 607 133 594 C133 582 145 570 158 570 L158 570 Z M394 96 L389 99 C364 59 298 19 255 19 C173 19 92 134 92 252 C92 286 98 320 108 351 L358 351 L396 351 C396 429 321 505 244 505 C146 505 50 372 50 236 C50 114 135 -5 222 -5 C277 -5 362 45 394 96 L394 96 Z M111 359 C138 435 190 493 243 493 C301 493 359 439 359 384 C359 375 352 367 343 365 L111 359 L111 359 Z " />
<glyph glyph-name="igrave" unicode="&#xec;" horiz-adv-x="137" d="M51 677 C32 705 12 733 10 733 C4 733 -13 721 -13 717 C-13 713 9 686 31 661 L143 531 L147 535 L51 677 L51 677 Z M69 0 L89 0 L93 0 L93 3 L93 5 L92 5 C90 5 89 37 89 70 L89 360 L89 430 L89 440 L81 440 L45 429 L45 428 L45 426 L46 424 C48 417 49 396 49 350 L49 70 C49 37 47 5 46 5 L45 5 L45 3 L45 0 L49 0 L69 0 L69 0 Z " />
<glyph glyph-name="iacute" unicode="&#xed;" horiz-adv-x="137" d="M-9 531 L100 661 C122 687 143 714 143 717 C143 721 126 733 120 733 C118 733 99 705 80 677 L-13 535 L-9 531 L-9 531 Z M69 0 L89 0 L93 0 L93 3 L93 5 L92 5 C90 5 89 37 89 70 L89 360 L89 430 L89 440 L81 440 L45 429 L45 428 L45 426 L46 424 C48 417 49 396 49 350 L49 70 C49 37 47 5 46 5 L45 5 L45 3 L45 0 L49 0 L69 0 L69 0 Z " />
<glyph glyph-name="icircumflex" unicode="&#xee;" horiz-adv-x="137" d="M69 701 L176 534 L180 537 L82 733 C80 736 74 745 69 745 C64 745 58 737 56 734 L-43 537 L-39 534 L69 701 L69 701 Z M69 0 L89 0 L93 0 L93 3 L93 5 L92 5 C90 5 89 37 89 70 L89 360 L89 430 L89 440 L81 440 L45 429 L45 428 L45 426 L46 424 C48 417 49 396 49 350 L49 70 C49 37 47 5 46 5 L45 5 L45 3 L45 0 L49 0 L69 0 L69 0 Z " />
<glyph glyph-name="idieresis" unicode="&#xef;" horiz-adv-x="137" d="M155 570 C167 570 179 582 179 594 C179 607 167 619 155 619 C142 619 130 607 130 594 C130 582 142 570 155 570 L155 570 Z M-17 570 C-5 570 7 582 7 594 C7 607 -5 619 -17 619 C-30 619 -42 607 -42 594 C-42 582 -30 570 -17 570 L-17 570 Z M69 0 L89 0 L93 0 L93 3 L93 5 L92 5 C90 5 89 37 89 70 L89 360 L89 430 L89 440 L81 440 L45 429 L45 428 L45 426 L46 424 C48 417 49 396 49 350 L49 70 C49 37 47 5 46 5 L45 5 L45 3 L45 0 L49 0 L69 0 L69 0 Z " />
<glyph glyph-name="ntilde" unicode="&#xf1;" horiz-adv-x="445" d="M104 595 C104 629 123 663 142 663 C188 663 252 601 297 601 C326 601 354 644 354 687 L347 687 C347 657 327 627 306 627 C261 627 197 690 151 690 C124 690 97 643 97 595 L104 595 L104 595 Z M362 70 C362 37 360 5 359 5 L358 5 L358 3 L358 0 L362 0 L382 0 L402 0 L406 0 L406 3 L406 5 L405 5 C404 5 402 37 402 70 L402 336 C402 421 356 505 284 505 C219 505 126 455 89 402 L89 420 L89 500 L81 500 L45 488 L45 485 L45 484 C48 477 49 455 49 409 L49 70 C49 37 47 5 45 5 L45 3 L45 0 L49 0 L69 0 L89 0 L92 0 L92 3 L92 5 C91 5 90 17 89 34 L89 70 L89 396 C119 438 198 478 253 478 C319 478 362 406 362 332 L362 70 L362 70 Z " />
<glyph glyph-name="ograve" unicode="&#xf2;" horiz-adv-x="556" d="M278 4 C185 4 94 126 94 250 C94 374 185 496 278 496 C371 496 462 374 462 250 C462 126 371 4 278 4 L278 4 Z M50 250 C50 121 163 -5 278 -5 C394 -5 507 121 507 250 C507 379 394 505 278 505 C163 505 50 379 50 250 L50 250 Z M261 677 C242 705 221 733 219 733 C213 733 196 721 196 717 C196 713 218 686 240 661 L352 531 L357 535 L261 677 L261 677 Z " />
<glyph glyph-name="oacute" unicode="&#xf3;" horiz-adv-x="556" d="M246 531 L355 661 C377 687 398 714 398 717 C398 721 381 733 375 733 C374 733 354 705 335 677 L242 535 L246 531 L246 531 Z M278 4 C185 4 94 126 94 250 C94 374 185 496 278 496 C371 496 462 374 462 250 C462 126 371 4 278 4 L278 4 Z M50 250 C50 121 163 -5 278 -5 C394 -5 507 121 507 250 C507 379 394 505 278 505 C163 505 50 379 50 250 L50 250 Z " />
<glyph glyph-name="ocircumflex" unicode="&#xf4;" horiz-adv-x="556" d="M278 4 C185 4 94 126 94 250 C94 374 185 496 278 496 C371 496 462 374 462 250 C462 126 371 4 278 4 L278 4 Z M50 250 C50 121 163 -5 278 -5 C394 -5 507 121 507 250 C507 379 394 505 278 505 C163 505 50 379 50 250 L50 250 Z M279 702 L387 534 L391 537 L292 733 C291 736 284 745 279 745 C274 745 268 737 267 734 L168 537 L172 534 L279 702 L279 702 Z " />
<glyph glyph-name="otilde" unicode="&#xf5;" horiz-adv-x="556" d="M157 595 C157 629 176 663 195 663 C241 663 305 601 350 601 C379 601 407 644 407 687 L400 687 C400 657 380 627 359 627 C314 627 249 690 204 690 C177 690 150 643 150 595 L157 595 L157 595 Z M278 4 C185 4 94 126 94 250 C94 374 185 496 278 496 C371 496 462 374 462 250 C462 126 371 4 278 4 L278 4 Z M50 250 C50 121 163 -5 278 -5 C394 -5 507 121 507 250 C507 379 394 505 278 505 C163 505 50 379 50 250 L50 250 Z " />
<glyph glyph-name="odieresis" unicode="&#xf6;" horiz-adv-x="556" d="M364 570 C377 570 389 582 389 594 C389 607 377 619 364 619 C352 619 340 607 340 594 C340 582 352 570 364 570 L364 570 Z M192 570 C205 570 217 582 217 594 C217 607 205 619 192 619 C180 619 168 607 168 594 C168 582 180 570 192 570 L192 570 Z M278 4 C185 4 94 126 94 250 C94 374 185 496 278 496 C371 496 462 374 462 250 C462 126 371 4 278 4 L278 4 Z M50 250 C50 121 163 -5 278 -5 C394 -5 507 121 507 250 C507 379 394 505 278 505 C163 505 50 379 50 250 L50 250 Z " />
<glyph glyph-name="oslash" unicode="&#xf8;" horiz-adv-x="556" d="M55 -9 L125 69 C167 24 222 -5 278 -5 C394 -5 507 121 507 250 C507 312 481 374 441 421 L513 501 L503 509 L433 431 C391 476 336 505 280 505 C165 505 52 379 52 250 C52 188 78 126 118 79 L46 -1 L55 -9 L55 -9 Z M279 4 C229 4 180 39 145 90 L420 397 C446 354 462 302 462 249 C462 125 371 3 278 3 L279 4 L279 4 Z M137 101 C111 144 94 197 94 250 C94 374 185 496 278 496 C328 496 377 461 412 409 L137 101 L137 101 Z " />
<glyph glyph-name="ugrave" unicode="&#xf9;" horiz-adv-x="410" d="M178 677 C159 705 138 733 136 733 C130 733 113 721 113 717 C113 713 135 686 157 661 L269 531 L274 535 L178 677 L178 677 Z M332 430 L332 82 C313 50 256 20 192 20 C117 20 58 89 58 159 L59 499 L39 499 L19 499 L15 499 L15 496 L15 494 C17 494 19 462 19 429 L19 155 C19 74 82 -6 160 -6 C235 -6 304 32 332 73 L332 9 L332 -1 L340 -1 L370 9 L372 9 L372 10 L376 11 L376 14 L375 15 C373 22 372 44 372 90 L372 499 L352 499 L332 499 L328 499 L328 496 L328 494 L329 494 C330 494 332 462 332 429 L332 430 L332 430 Z " />
<glyph glyph-name="uacute" unicode="&#xfa;" horiz-adv-x="410" d="M163 531 L272 661 C294 687 315 714 315 717 C315 721 298 733 292 733 C291 733 271 705 252 677 L159 535 L163 531 L163 531 Z M332 430 L332 82 C313 50 256 20 192 20 C117 20 58 89 58 159 L59 499 L39 499 L19 499 L15 499 L15 496 L15 494 C17 494 19 462 19 429 L19 155 C19 74 82 -6 160 -6 C235 -6 304 32 332 73 L332 9 L332 -1 L340 -1 L370 9 L372 9 L372 10 L376 11 L376 14 L375 15 C373 22 372 44 372 90 L372 499 L352 499 L332 499 L328 499 L328 496 L328 494 L329 494 C330 494 332 462 332 429 L332 430 L332 430 Z " />
<glyph glyph-name="ucircumflex" unicode="&#xfb;" horiz-adv-x="410" d="M196 702 L304 534 L308 537 L209 733 C208 736 201 745 196 745 C191 745 185 737 184 734 L85 537 L89 534 L196 702 L196 702 Z M333 430 L333 82 C314 50 257 20 193 20 C118 20 59 89 59 159 L60 499 L40 499 L20 499 L16 499 L16 496 L16 494 C18 494 20 462 20 429 L20 155 C20 74 83 -6 161 -6 C236 -6 305 32 333 73 L333 9 L333 -1 L341 -1 L371 9 L373 9 L373 10 L377 11 L377 14 L376 15 C374 22 373 44 373 90 L373 499 L353 499 L333 499 L329 499 L329 496 L329 494 L330 494 C331 494 333 462 333 429 L333 430 L333 430 Z " />
<glyph glyph-name="udieresis" unicode="&#xfc;" horiz-adv-x="410" d="M281 570 C294 570 306 582 306 594 C306 607 294 619 281 619 C269 619 257 607 257 594 C257 582 269 570 281 570 L281 570 Z M109 570 C122 570 134 582 134 594 C134 607 122 619 109 619 C97 619 85 607 85 594 C85 582 97 570 109 570 L109 570 Z M332 430 L332 82 C313 50 256 20 192 20 C117 20 58 89 58 159 L59 499 L39 499 L19 499 L15 499 L15 496 L15 494 C17 494 19 462 19 429 L19 155 C19 74 82 -6 160 -6 C235 -6 304 32 332 73 L332 9 L332 -1 L340 -1 L370 9 L372 9 L372 10 L376 11 L376 14 L375 15 C373 22 372 44 372 90 L372 499 L352 499 L332 499 L328 499 L328 496 L328 494 L329 494 C330 494 332 462 332 429 L332 430 L332 430 Z " />
<glyph glyph-name="ydieresis" unicode="&#xff;" horiz-adv-x="293" d="M264 570 C276 570 288 582 288 594 C288 607 276 619 264 619 C251 619 239 607 239 594 C239 582 251 570 264 570 L264 570 Z M92 570 C104 570 116 582 116 594 C116 607 104 619 92 619 C79 619 67 607 67 594 C67 582 79 570 92 570 L92 570 Z M316 430 L316 430 L190 42 L71 430 L71 430 C60 463 52 495 53 495 L53 497 L53 500 L49 500 L26 500 L3 500 L1 500 L1 497 L1 495 L2 495 C3 495 9 481 16 462 L171 -4 L148 -68 C120 -151 85 -204 59 -204 C42 -204 17 -180 0 -180 C-10 -180 -20 -188 -20 -197 C-20 -214 7 -230 34 -230 C77 -230 126 -168 158 -72 L179 -10 L336 454 C344 477 352 495 353 495 L353 497 L353 500 L351 500 L344 500 L338 500 L334 500 L334 497 L334 495 C335 495 326 463 315 430 L316 430 L316 430 Z " />
<glyph glyph-name="Amacron" unicode="&#x100;" horiz-adv-x="495" d="M99 771 L369 771 L369 794 L99 794 L99 771 L99 771 Z M454 70 L453 70 L241 675 L227 675 L34 70 L34 70 C23 37 11 5 10 5 L9 5 L9 3 L9 0 L12 0 L21 0 L31 0 L36 0 L36 3 L36 5 C35 5 38 21 44 43 L112 260 L328 260 L406 28 C410 14 413 5 412 5 L411 5 L411 3 L411 0 L415 0 L447 0 L478 0 L481 0 L481 3 L481 5 C479 5 465 37 454 70 L454 70 Z M323 275 L117 275 L216 594 L323 275 L323 275 Z " />
<glyph glyph-name="amacron" unicode="&#x101;" horiz-adv-x="448" d="M68 611 L338 611 L338 634 L68 634 L68 611 L68 611 Z M427 36 C413 22 391 9 374 9 C348 9 335 37 335 66 L335 361 C335 433 283 505 230 505 C125 505 47 439 71 372 L111 372 C89 434 143 494 221 494 C257 494 293 432 293 369 L293 269 L184 231 C109 205 35 141 35 101 C35 48 85 -5 137 -5 C179 -5 249 30 293 72 L293 62 C293 26 311 -10 346 -10 C375 -10 410 10 431 31 L427 36 L427 36 Z M293 259 L293 79 C256 48 196 22 156 22 C115 22 75 67 75 113 C75 146 129 198 184 219 L293 259 L293 259 Z " />
<glyph glyph-name="Abreve" unicode="&#x102;" horiz-adv-x="495" d="M136 872 C143 822 192 773 234 773 C276 773 325 822 332 872 L325 873 C319 836 274 800 234 800 C194 800 149 836 144 873 L136 872 L136 872 Z M454 70 L453 70 L241 675 L227 675 L34 70 L34 70 C23 37 11 5 10 5 L9 5 L9 3 L9 0 L12 0 L21 0 L31 0 L36 0 L36 3 L36 5 C35 5 38 21 44 43 L112 260 L328 260 L406 28 C410 14 413 5 412 5 L411 5 L411 3 L411 0 L415 0 L447 0 L478 0 L481 0 L481 3 L481 5 C479 5 465 37 454 70 L454 70 Z M323 275 L117 275 L216 594 L323 275 L323 275 Z " />
<glyph glyph-name="abreve" unicode="&#x103;" horiz-adv-x="448" d="M106 682 C112 632 161 583 203 583 C246 583 294 632 301 682 L294 683 C288 646 243 610 203 610 C163 610 118 646 113 683 L106 682 L106 682 Z M427 36 C413 22 391 9 374 9 C348 9 335 37 335 66 L335 361 C335 433 283 505 230 505 C125 505 47 439 71 372 L111 372 C89 434 143 494 221 494 C257 494 293 432 293 369 L293 269 L184 231 C109 205 35 141 35 101 C35 48 85 -5 137 -5 C179 -5 249 30 293 72 L293 62 C293 26 311 -10 346 -10 C375 -10 410 10 431 31 L427 36 L427 36 Z M293 259 L293 79 C256 48 196 22 156 22 C115 22 75 67 75 113 C75 146 129 198 184 219 L293 259 L293 259 Z " />
<glyph glyph-name="Aogonek" unicode="&#x104;" horiz-adv-x="495" d="M454 70 L453 70 L241 675 L227 675 L34 70 L34 70 C23 37 11 5 10 5 L9 5 L9 3 L9 0 L12 0 L21 0 L31 0 L36 0 L36 3 L36 5 C35 5 38 21 44 43 L112 260 L328 260 L406 28 C409 19 411 12 412 8 C374 -9 277 -99 277 -155 C277 -193 325 -231 375 -231 C401 -231 440 -215 454 -198 L451 -194 C441 -207 407 -220 383 -220 C342 -220 301 -186 301 -151 C301 -95 386 -9 415 1 L447 1 L478 1 L481 1 L481 4 L481 6 C479 6 465 38 454 71 L454 70 L454 70 Z M323 276 L117 276 L216 595 L323 276 L323 276 Z " />
<glyph glyph-name="aogonek" unicode="&#x105;" horiz-adv-x="448" d="M390 12 C384 10 378 9 373 9 C347 9 334 37 334 66 L334 361 C334 433 282 505 229 505 C124 505 46 439 70 372 L110 372 C88 434 142 494 220 494 C256 494 292 432 292 369 L292 269 L183 231 C108 205 34 141 34 101 C34 48 84 -5 136 -5 C178 -5 248 30 292 72 L292 62 C292 26 310 -10 345 -10 C353 -10 361 -8 369 -5 C331 -43 292 -96 292 -134 C292 -183 340 -231 389 -231 C415 -231 455 -215 469 -198 L466 -194 C455 -207 421 -220 398 -220 C357 -220 316 -175 316 -130 C316 -86 360 -27 395 7 C408 14 420 23 429 32 L429 41 C419 37 404 27 388 13 L390 12 L390 12 Z M291 260 L291 80 C254 49 194 23 154 23 C113 23 73 68 73 114 C73 147 127 199 182 220 L291 260 L291 260 Z " />
<glyph glyph-name="Cacute" unicode="&#x106;" horiz-adv-x="689" d="M334 691 L443 821 C464 847 486 874 486 877 C486 881 469 893 463 893 C461 893 442 865 423 837 L330 695 L334 691 L334 691 Z M618 92 L618 92 C617 91 616 90 615 89 C584 64 513 32 465 21 L465 21 C436 14 406 10 380 10 C251 10 124 169 124 331 C124 493 251 652 380 652 C423 652 474 642 518 626 C550 613 592 589 613 571 C614 570 615 569 616 568 L616 568 C617 567 618 566 619 565 L623 561 L625 561 L628 561 L628 577 C591 621 468 664 379 664 C218 664 59 498 59 329 C59 160 218 -6 379 -6 C468 -6 591 37 628 81 L628 97 L625 97 L623 97 L619 93 C618 92 617 91 616 90 L618 92 L618 92 Z " />
<glyph glyph-name="cacute" unicode="&#x107;" horiz-adv-x="438" d="M196 531 L305 661 C326 687 347 714 347 717 C347 721 330 733 325 733 C323 733 303 705 284 677 L191 535 L196 531 L196 531 Z M387 96 L382 99 C357 59 293 19 252 19 C171 19 92 134 92 252 C92 374 180 494 269 494 C306 494 347 449 351 403 C352 394 362 384 371 384 C380 384 389 393 389 402 C384 454 327 505 273 505 C161 505 50 372 50 236 C50 114 133 -5 219 -5 C272 -5 355 45 387 96 L387 96 Z " />
<glyph glyph-name="Ccircumflex" unicode="&#x108;" horiz-adv-x="689" d="M382 862 L490 694 L494 697 L395 893 C394 896 388 905 382 905 C377 905 371 897 370 894 L271 697 L275 694 L382 862 L382 862 Z M619 92 L619 92 C618 91 617 90 616 89 C585 64 514 32 466 21 L466 21 C437 14 407 10 381 10 C252 10 125 169 125 331 C125 493 252 652 381 652 C424 652 475 642 519 626 C551 613 593 589 614 571 C615 570 616 569 617 568 L617 568 C618 567 619 566 620 565 L624 561 L626 561 L629 561 L629 577 C592 621 469 664 380 664 C219 664 60 498 60 329 C60 160 219 -6 380 -6 C469 -6 592 37 629 81 L629 97 L626 97 L624 97 L620 93 C619 92 618 91 617 90 L619 92 L619 92 Z " />
<glyph glyph-name="Cdot" unicode="&#x10a;" horiz-adv-x="689" d="M381 730 C394 730 406 742 406 754 C406 767 394 779 381 779 C369 779 357 767 357 754 C357 742 369 730 381 730 L381 730 Z M618 92 L618 92 C617 91 616 90 615 89 C584 64 513 32 465 21 L465 21 C436 14 406 10 380 10 C251 10 124 169 124 331 C124 493 251 652 380 652 C423 652 474 642 518 626 C550 613 592 589 613 571 C614 570 615 569 616 568 L616 568 C617 567 618 566 619 565 L623 561 L625 561 L628 561 L628 577 C591 621 468 664 379 664 C218 664 59 498 59 329 C59 160 218 -6 379 -6 C468 -6 591 37 628 81 L628 97 L625 97 L623 97 L619 93 C618 92 617 91 616 90 L618 92 L618 92 Z " />
<glyph glyph-name="cdot" unicode="&#x10b;" horiz-adv-x="438" d="M273 570 C286 570 298 582 298 594 C298 607 286 619 273 619 C261 619 249 607 249 594 C249 582 261 570 273 570 L273 570 Z M387 96 L382 99 C357 59 293 19 252 19 C171 19 92 134 92 252 C92 374 180 494 269 494 C306 494 347 449 351 403 C352 394 362 384 371 384 C380 384 389 393 389 402 C384 454 327 505 273 505 C161 505 50 372 50 236 C50 114 133 -5 219 -5 C272 -5 355 45 387 96 L387 96 Z " />
<glyph glyph-name="Ccaron" unicode="&#x10c;" horiz-adv-x="689" d="M382 758 L490 926 L494 923 L395 727 C394 724 388 715 382 715 C377 715 371 723 370 726 L271 923 L275 926 L382 758 L382 758 Z M619 92 L619 92 C618 91 617 90 616 89 C585 64 514 32 466 21 L466 21 C437 14 407 10 381 10 C252 10 125 169 125 331 C125 493 252 652 381 652 C424 652 475 642 519 626 C551 613 593 589 614 571 C615 570 616 569 617 568 L617 568 C618 567 619 566 620 565 L624 561 L626 561 L629 561 L629 577 C592 621 469 664 380 664 C219 664 60 498 60 329 C60 160 219 -6 380 -6 C469 -6 592 37 629 81 L629 97 L626 97 L624 97 L620 93 C619 92 618 91 617 90 L619 92 L619 92 Z " />
<glyph glyph-name="ccaron" unicode="&#x10d;" horiz-adv-x="438" d="M387 96 L382 99 C357 59 293 19 252 19 C171 19 92 134 92 252 C92 374 180 494 269 494 C306 494 347 449 351 403 C352 394 362 384 371 384 C380 384 389 393 389 402 C384 454 327 505 273 505 C161 505 50 372 50 236 C50 114 133 -5 219 -5 C272 -5 355 45 387 96 L387 96 Z M274 598 L382 766 L386 763 L287 567 C286 564 280 555 274 555 C269 555 263 563 262 566 L163 763 L167 766 L274 598 L274 598 Z " />
<glyph glyph-name="Dcaron" unicode="&#x10e;" horiz-adv-x="592" d="M270 758 L378 926 L382 923 L283 727 C282 724 276 715 271 715 C266 715 259 723 258 726 L159 923 L163 926 L270 758 L270 758 Z M84 0 L113 0 L251 0 C399 0 544 163 544 330 C544 497 382 660 216 660 L113 660 L84 660 L55 660 L52 660 L52 657 L52 655 C54 655 55 623 55 590 L55 70 C55 37 54 5 52 5 L52 3 L52 0 L55 0 L84 0 L84 0 Z M113 11 L113 649 L216 649 C353 649 486 491 486 330 C486 169 370 11 251 11 L113 11 L113 11 Z " />
<glyph glyph-name="dcaron" unicode="&#x10f;" horiz-adv-x="563" d="M557 638 C572 683 587 740 587 745 C587 750 568 754 562 754 C555 754 539 685 532 647 L502 486 L507 484 L557 638 L557 638 Z M451 10 L453 10 L453 11 L457 12 L457 15 L457 16 C454 23 453 45 453 91 L453 640 L453 710 L453 720 L445 720 L415 710 L413 710 L413 709 L409 708 L409 705 L410 704 C412 697 413 675 413 629 L413 413 C384 463 320 506 256 506 C154 506 54 368 54 227 C54 110 147 -4 241 -4 C305 -4 384 28 411 63 L411 11 L411 1 L419 1 L451 10 L451 10 Z M411 81 L411 71 C394 45 323 20 263 20 C179 20 96 130 96 242 C96 370 174 495 254 495 C324 495 393 443 412 388 L411 81 L411 81 Z " />
<glyph glyph-name="Emacron" unicode="&#x112;" horiz-adv-x="414" d="M66 771 L336 771 L336 794 L66 794 L66 771 L66 771 Z M373 7 C374 11 375 18 376 21 L372 21 L370 20 C363 18 307 15 256 14 L98 14 L98 380 L209 380 C252 380 297 378 301 376 L302 376 L305 376 L306 376 L306 380 L306 387 L306 394 L306 398 L305 398 L302 398 L301 398 C297 396 252 395 209 394 L98 394 L98 646 L248 646 C299 646 354 643 361 640 L363 639 L366 639 L366 653 L366 660 L361 660 L296 660 L98 660 L69 660 L41 660 L37 660 L37 657 L37 655 C39 655 41 623 41 590 L41 70 C41 37 39 5 37 5 L37 3 L37 0 L41 0 L69 0 L98 0 L302 0 L371 0 L372 0 L373 7 L373 7 Z " />
<glyph glyph-name="emacron" unicode="&#x113;" horiz-adv-x="445" d="M109 611 L379 611 L379 634 L109 634 L109 611 L109 611 Z M394 96 L389 99 C364 59 298 19 255 19 C173 19 92 134 92 252 C92 286 98 320 108 351 L358 351 L396 351 C396 429 321 505 244 505 C146 505 50 372 50 236 C50 114 135 -5 222 -5 C277 -5 362 45 394 96 L394 96 Z M111 359 C138 435 190 493 243 493 C301 493 359 439 359 384 C359 375 352 367 343 365 L111 359 L111 359 Z " />
<glyph glyph-name="Ebreve" unicode="&#x114;" horiz-adv-x="414" d="M103 872 C110 822 158 773 201 773 C243 773 292 822 298 872 L291 873 C286 836 241 800 201 800 C161 800 116 836 110 873 L103 872 L103 872 Z M373 7 C374 11 375 18 376 21 L372 21 L370 20 C363 18 307 15 256 14 L98 14 L98 380 L209 380 C252 380 297 378 301 376 L302 376 L305 376 L306 376 L306 380 L306 387 L306 394 L306 398 L305 398 L302 398 L301 398 C297 396 252 395 209 394 L98 394 L98 646 L248 646 C299 646 354 643 361 640 L363 639 L366 639 L366 653 L366 660 L361 660 L296 660 L98 660 L69 660 L41 660 L37 660 L37 657 L37 655 C39 655 41 623 41 590 L41 70 C41 37 39 5 37 5 L37 3 L37 0 L41 0 L69 0 L98 0 L302 0 L371 0 L372 0 L373 7 L373 7 Z " />
<glyph glyph-name="ebreve" unicode="&#x115;" horiz-adv-x="445" d="M146 712 C153 662 202 613 244 613 C286 613 335 662 341 712 L334 713 C329 676 284 640 244 640 C204 640 159 676 153 713 L146 712 L146 712 Z M394 96 L389 99 C364 59 298 19 255 19 C173 19 92 134 92 252 C92 286 98 320 108 351 L358 351 L396 351 C396 429 321 505 244 505 C146 505 50 372 50 236 C50 114 135 -5 222 -5 C277 -5 362 45 394 96 L394 96 Z M111 359 C138 435 190 493 243 493 C301 493 359 439 359 384 C359 375 352 367 343 365 L111 359 L111 359 Z " />
<glyph glyph-name="Edot" unicode="&#x116;" horiz-adv-x="414" d="M201 730 C213 730 225 742 225 754 C225 767 213 779 201 779 C188 779 176 767 176 754 C176 742 188 730 201 730 L201 730 Z M373 7 C374 11 375 18 376 21 L372 21 L370 20 C363 18 307 15 256 14 L98 14 L98 380 L209 380 C252 380 297 378 301 376 L302 376 L305 376 L306 376 L306 380 L306 387 L306 394 L306 398 L305 398 L302 398 L301 398 C297 396 252 395 209 394 L98 394 L98 646 L248 646 C299 646 354 643 361 640 L363 639 L366 639 L366 653 L366 660 L361 660 L296 660 L98 660 L69 660 L41 660 L37 660 L37 657 L37 655 C39 655 41 623 41 590 L41 70 C41 37 39 5 37 5 L37 3 L37 0 L41 0 L69 0 L98 0 L302 0 L371 0 L372 0 L373 7 L373 7 Z " />
<glyph glyph-name="edot" unicode="&#x117;" horiz-adv-x="445" d="M244 570 C256 570 268 582 268 594 C268 607 256 619 244 619 C231 619 219 607 219 594 C219 582 231 570 244 570 L244 570 Z M394 96 L389 99 C364 59 298 19 255 19 C173 19 92 134 92 252 C92 286 98 320 108 351 L358 351 L396 351 C396 429 321 505 244 505 C146 505 50 372 50 236 C50 114 135 -5 222 -5 C277 -5 362 45 394 96 L394 96 Z M111 359 C138 435 190 493 243 493 C301 493 359 439 359 384 C359 375 352 367 343 365 L111 359 L111 359 Z " />
<glyph glyph-name="Eogonek" unicode="&#x118;" horiz-adv-x="414" d="M373 7 C374 11 375 18 376 21 L372 21 L370 20 C363 18 307 15 256 14 L98 14 L98 380 L209 380 C252 380 297 378 301 376 L302 376 L305 376 L306 376 L306 380 L306 387 L306 394 L306 398 L305 398 L302 398 L301 398 C297 396 252 395 209 394 L98 394 L98 646 L248 646 C299 646 354 643 361 640 L363 639 L366 639 L366 653 L366 660 L361 660 L296 660 L98 660 L69 660 L41 660 L37 660 L37 657 L37 655 C39 655 41 623 41 590 L41 70 C41 37 39 5 37 5 L37 3 L37 0 L41 0 L69 0 L98 0 L302 0 L354 0 C311 -28 233 -106 233 -156 C233 -194 281 -232 330 -232 C356 -232 396 -216 410 -199 L407 -195 C396 -208 363 -221 339 -221 C298 -221 257 -187 257 -152 C257 -96 342 -10 371 0 L372 0 L373 7 L373 7 Z " />
<glyph glyph-name="eogonek" unicode="&#x119;" horiz-adv-x="445" d="M287 11 L287 11 C330 30 373 63 394 96 L389 99 C364 59 298 19 255 19 C173 19 92 134 92 252 C92 286 98 320 108 351 L358 351 L396 351 C396 429 321 505 244 505 C146 505 50 372 50 236 C50 114 135 -5 222 -5 C232 -5 243 -3 254 0 C210 -34 148 -102 148 -148 C148 -190 197 -231 246 -231 C272 -231 312 -215 326 -198 L323 -194 C312 -207 278 -220 255 -220 C214 -220 173 -182 173 -143 C173 -86 258 2 287 12 L287 11 L287 11 Z M111 360 C138 436 190 494 243 494 C301 494 359 440 359 385 C359 376 352 368 343 366 L111 360 L111 360 Z " />
<glyph glyph-name="Ecaron" unicode="&#x11a;" horiz-adv-x="414" d="M201 758 L309 926 L313 923 L215 727 C213 724 207 715 202 715 C197 715 191 723 189 726 L90 923 L94 926 L201 758 L201 758 Z M374 7 C375 11 376 18 377 21 L373 21 L371 20 C364 18 308 15 257 14 L99 14 L99 380 L210 380 C253 380 298 378 302 376 L303 376 L306 376 L307 376 L307 380 L307 387 L307 394 L307 398 L306 398 L303 398 L302 398 C298 396 253 395 210 394 L99 394 L99 646 L249 646 C300 646 355 643 362 640 L364 639 L367 639 L367 653 L367 660 L362 660 L297 660 L99 660 L70 660 L42 660 L38 660 L38 657 L38 655 C40 655 42 623 42 590 L42 70 C42 37 40 5 38 5 L38 3 L38 0 L42 0 L70 0 L99 0 L303 0 L372 0 L373 0 L374 7 L374 7 Z " />
<glyph glyph-name="ecaron" unicode="&#x11b;" horiz-adv-x="445" d="M394 96 L389 99 C364 59 298 19 255 19 C173 19 92 134 92 252 C92 286 98 320 108 351 L358 351 L396 351 C396 429 321 505 244 505 C146 505 50 372 50 236 C50 114 135 -5 222 -5 C277 -5 362 45 394 96 L394 96 Z M244 599 L351 766 L355 763 L257 567 C255 564 249 555 244 555 C239 555 233 563 231 566 L132 763 L136 766 L244 599 L244 599 Z M111 359 C138 435 190 493 243 493 C301 493 359 439 359 384 C359 375 352 367 343 365 L111 359 L111 359 Z " />
<glyph glyph-name="Gcircumflex" unicode="&#x11c;" horiz-adv-x="707" d="M370 861 L478 694 L482 697 L383 893 C381 896 375 905 370 905 C365 905 359 897 358 894 L259 697 L263 694 L370 861 L370 861 Z M562 240 L562 49 C503 27 421 9 370 9 C246 9 125 168 125 330 C125 492 246 651 370 651 C406 651 448 643 487 630 L487 630 C520 619 570 592 595 571 C596 570 597 569 598 568 L598 568 C599 567 600 566 601 565 L605 561 L607 561 L610 561 L610 577 C573 621 454 664 370 664 C214 664 61 498 61 329 C61 160 214 -6 370 -6 C439 -6 560 25 614 56 L614 239 C614 272 615 304 617 304 L618 304 L618 306 L618 309 L614 309 L588 309 L562 309 L558 309 L558 306 L558 304 L559 304 C560 304 562 272 562 239 L562 240 L562 240 Z " />
<glyph glyph-name="Gbreve" unicode="&#x11e;" horiz-adv-x="707" d="M273 872 C280 822 328 773 370 773 C413 773 461 822 468 872 L461 873 C455 836 411 800 370 800 C330 800 285 836 280 873 L273 872 L273 872 Z M562 240 L562 49 C503 27 421 9 370 9 C246 9 125 168 125 330 C125 492 246 651 370 651 C406 651 448 643 487 630 L487 630 C520 619 570 592 595 571 C596 570 597 569 598 568 L598 568 C599 567 600 566 601 565 L605 561 L607 561 L610 561 L610 577 C573 621 454 664 370 664 C214 664 61 498 61 329 C61 160 214 -6 370 -6 C439 -6 560 25 614 56 L614 239 C614 272 615 304 617 304 L618 304 L618 306 L618 309 L614 309 L588 309 L562 309 L558 309 L558 306 L558 304 L559 304 C560 304 562 272 562 239 L562 240 L562 240 Z " />
<glyph glyph-name="gbreve" unicode="&#x11f;" horiz-adv-x="435" d="M136 712 C143 662 192 613 234 613 C276 613 325 662 332 712 L324 713 C319 676 274 640 234 640 C194 640 149 676 143 713 L136 712 L136 712 Z M436 500 L298 490 C278 499 256 504 234 504 C152 504 72 428 72 350 C72 285 126 222 191 201 L188 201 C120 201 54 158 54 113 C54 72 102 33 157 25 C90 -3 29 -66 29 -109 C29 -175 97 -240 166 -240 C293 -240 417 -148 417 -54 C417 5 333 64 248 64 L182 61 C131 58 81 92 81 129 C81 162 134 194 188 194 L235 194 C317 194 397 270 397 349 C397 397 367 444 325 473 L438 475 L436 500 L436 500 Z M111 348 C111 421 173 493 236 493 C299 493 361 421 361 348 C361 274 299 202 236 202 C173 202 111 274 111 348 L111 348 Z M170 22 C175 22 180 22 185 22 L238 25 C314 25 389 -25 389 -75 C389 -153 281 -230 171 -230 C113 -230 57 -168 57 -106 C57 -62 112 -1 169 22 L170 22 L170 22 Z " />
<glyph glyph-name="Gdot" unicode="&#x120;" horiz-adv-x="707" d="M370 730 C383 730 395 742 395 754 C395 767 383 779 370 779 C358 779 346 767 346 754 C346 742 358 730 370 730 L370 730 Z M562 240 L562 49 C503 27 421 9 370 9 C246 9 125 168 125 330 C125 492 246 651 370 651 C406 651 448 643 487 630 L487 630 C520 619 570 592 595 571 C596 570 597 569 598 568 L598 568 C599 567 600 566 601 565 L605 561 L607 561 L610 561 L610 577 C573 621 454 664 370 664 C214 664 61 498 61 329 C61 160 214 -6 370 -6 C439 -6 560 25 614 56 L614 239 C614 272 615 304 617 304 L618 304 L618 306 L618 309 L614 309 L588 309 L562 309 L558 309 L558 306 L558 304 L559 304 C560 304 562 272 562 239 L562 240 L562 240 Z " />
<glyph glyph-name="gdot" unicode="&#x121;" horiz-adv-x="435" d="M234 570 C246 570 258 582 258 594 C258 607 246 619 234 619 C222 619 210 607 210 594 C210 582 222 570 234 570 L234 570 Z M436 500 L298 490 C278 499 256 504 234 504 C152 504 72 428 72 350 C72 285 126 222 191 201 L188 201 C120 201 54 158 54 113 C54 72 102 33 157 25 C90 -3 29 -66 29 -109 C29 -175 97 -240 166 -240 C293 -240 417 -148 417 -54 C417 5 333 64 248 64 L182 61 C131 58 81 92 81 129 C81 162 134 194 188 194 L235 194 C317 194 397 270 397 349 C397 397 367 444 325 473 L438 475 L436 500 L436 500 Z M111 348 C111 421 173 493 236 493 C299 493 361 421 361 348 C361 274 299 202 236 202 C173 202 111 274 111 348 L111 348 Z M170 22 C175 22 180 22 185 22 L238 25 C314 25 389 -25 389 -75 C389 -153 281 -230 171 -230 C113 -230 57 -168 57 -106 C57 -62 112 -1 169 22 L170 22 L170 22 Z " />
<glyph glyph-name="Hcircumflex" unicode="&#x124;" horiz-adv-x="594" d="M296 862 L404 694 L408 697 L309 893 C308 896 302 905 296 905 C291 905 285 897 284 894 L185 697 L189 694 L296 862 L296 862 Z M523 0 L551 0 L555 0 L555 3 L555 5 C553 5 552 37 551 70 L551 590 C552 623 553 655 555 655 L555 657 L555 660 L551 660 L523 660 L494 660 L490 660 L490 657 L490 655 C492 655 494 623 494 590 L494 388 L99 388 L99 590 C99 623 101 655 103 655 L103 657 L103 660 L99 660 L70 660 L42 660 L38 660 L38 657 L38 655 C40 655 42 623 42 590 L42 70 C42 37 40 5 38 5 L38 3 L38 0 L42 0 L70 0 L99 0 L103 0 L103 3 L103 5 C101 5 99 37 99 70 L99 373 L494 373 L494 70 C494 37 492 5 490 5 L490 3 L490 0 L494 0 L523 0 L523 0 Z " />
<glyph glyph-name="Itilde" unicode="&#x128;" horiz-adv-x="138" d="M-56 755 C-56 789 -37 823 -17 823 C29 823 93 761 138 761 C166 761 194 804 194 847 L188 847 C188 817 168 787 147 787 C101 787 37 850 -8 850 C-35 850 -62 803 -62 755 L-56 755 L-56 755 Z M66 0 L95 0 L99 0 L99 3 L99 5 L98 5 C97 5 95 37 95 70 L95 590 C95 623 97 655 98 655 L99 655 L99 657 L99 660 L95 660 L66 660 L37 660 L33 660 L33 657 L33 655 L34 655 C35 655 37 623 37 590 L37 70 C37 37 35 5 34 5 L33 5 L33 3 L33 0 L37 0 L66 0 L66 0 Z " />
<glyph glyph-name="itilde" unicode="&#x129;" horiz-adv-x="137" d="M-53 595 C-53 629 -34 663 -14 663 C31 663 96 601 141 601 C169 601 197 644 197 687 L191 687 C191 657 170 627 150 627 C104 627 40 690 -5 690 C-32 690 -59 643 -59 595 L-53 595 L-53 595 Z M69 0 L89 0 L93 0 L93 3 L93 5 L92 5 C90 5 89 37 89 70 L89 360 L89 430 L89 440 L81 440 L45 429 L45 428 L45 426 L46 424 C48 417 49 396 49 350 L49 70 C49 37 47 5 46 5 L45 5 L45 3 L45 0 L49 0 L69 0 L69 0 Z " />
<glyph glyph-name="Imacron" unicode="&#x12a;" horiz-adv-x="138" d="M-69 771 L201 771 L201 794 L-69 794 L-69 771 L-69 771 Z M66 0 L95 0 L99 0 L99 3 L99 5 L98 5 C97 5 95 37 95 70 L95 590 C95 623 97 655 98 655 L99 655 L99 657 L99 660 L95 660 L66 660 L37 660 L33 660 L33 657 L33 655 L34 655 C35 655 37 623 37 590 L37 70 C37 37 35 5 34 5 L33 5 L33 3 L33 0 L37 0 L66 0 L66 0 Z " />
<glyph glyph-name="imacron" unicode="&#x12b;" horiz-adv-x="137" d="M-66 611 L204 611 L204 634 L-66 634 L-66 611 L-66 611 Z M69 0 L89 0 L93 0 L93 3 L93 5 L92 5 C90 5 89 37 89 70 L89 360 L89 430 L89 440 L81 440 L45 429 L45 428 L45 426 L46 424 C48 417 49 396 49 350 L49 70 C49 37 47 5 46 5 L45 5 L45 3 L45 0 L49 0 L69 0 L69 0 Z " />
<glyph glyph-name="Ibreve" unicode="&#x12c;" horiz-adv-x="138" d="M-32 872 C-25 822 24 773 66 773 C108 773 157 822 164 872 L157 873 C151 836 106 800 66 800 C26 800 -19 836 -24 873 L-32 872 L-32 872 Z M66 0 L95 0 L99 0 L99 3 L99 5 L98 5 C97 5 95 37 95 70 L95 590 C95 623 97 655 98 655 L99 655 L99 657 L99 660 L95 660 L66 660 L37 660 L33 660 L33 657 L33 655 L34 655 C35 655 37 623 37 590 L37 70 C37 37 35 5 34 5 L33 5 L33 3 L33 0 L37 0 L66 0 L66 0 Z " />
<glyph glyph-name="ibreve" unicode="&#x12d;" horiz-adv-x="137" d="M-29 712 C-22 662 27 613 69 613 C111 613 160 662 166 712 L159 713 C154 676 109 640 69 640 C29 640 -16 676 -22 713 L-29 712 L-29 712 Z M69 0 L89 0 L93 0 L93 3 L93 5 L92 5 C90 5 89 37 89 70 L89 360 L89 430 L89 440 L81 440 L45 429 L45 428 L45 426 L46 424 C48 417 49 396 49 350 L49 70 C49 37 47 5 46 5 L45 5 L45 3 L45 0 L49 0 L69 0 L69 0 Z " />
<glyph glyph-name="Idot" unicode="&#x130;" horiz-adv-x="138" d="M66 730 C79 730 91 742 91 754 C91 767 79 779 66 779 C54 779 42 767 42 754 C42 742 54 730 66 730 L66 730 Z M66 0 L95 0 L99 0 L99 3 L99 5 L98 5 C97 5 95 37 95 70 L95 590 C95 623 97 655 98 655 L99 655 L99 657 L99 660 L95 660 L66 660 L37 660 L33 660 L33 657 L33 655 L34 655 C35 655 37 623 37 590 L37 70 C37 37 35 5 34 5 L33 5 L33 3 L33 0 L37 0 L66 0 L66 0 Z " />
<glyph glyph-name="dotlessi" unicode="&#x131;" horiz-adv-x="137" d="M69 0 L89 0 L93 0 L93 3 L93 5 L92 5 C90 5 89 37 89 70 L89 360 L89 430 L89 440 L81 440 L45 429 L45 428 L45 426 L46 424 C48 417 49 396 49 350 L49 70 C49 37 47 5 46 5 L45 5 L45 3 L45 0 L49 0 L69 0 L69 0 Z " />
<glyph glyph-name="Jcircumflex" unicode="&#x134;" horiz-adv-x="269" d="M197 861 L305 694 L309 697 L210 893 C208 896 202 905 197 905 C192 905 186 897 184 894 L86 697 L90 694 L197 861 L197 861 Z M168 590 L168 200 C168 78 140 -1 97 -1 C73 -1 44 24 38 50 C35 59 25 68 18 68 C6 68 -3 59 0 50 C8 20 50 -10 86 -10 C171 -10 226 92 226 249 L226 590 C226 623 228 655 229 655 L230 655 L230 657 L230 660 L226 660 L197 660 L168 660 L164 660 L164 657 L164 655 L165 655 C166 655 168 623 168 590 L168 590 Z " />
<glyph glyph-name="Lacute" unicode="&#x139;" horiz-adv-x="414" d="M45 691 L154 821 C175 847 196 874 197 877 C196 881 179 893 174 893 C172 893 152 865 133 837 L40 695 L45 691 L45 691 Z M373 7 C374 11 375 18 376 22 L375 22 L370 22 L368 21 C362 18 312 15 266 14 L98 14 L98 590 C98 623 100 655 102 655 L102 657 L102 660 L98 660 L69 660 L41 660 L37 660 L37 657 L37 655 C39 655 41 623 41 590 L41 70 C41 37 39 5 37 5 L37 3 L37 0 L41 0 L69 0 L98 0 L302 0 L371 0 L372 0 L373 7 L373 7 Z " />
<glyph glyph-name="Lcaron" unicode="&#x13d;" horiz-adv-x="414" d="M206 578 C221 623 236 680 236 685 C236 690 217 694 211 694 C204 694 188 625 181 587 L151 426 L156 424 L206 578 L206 578 Z M373 7 C374 11 375 18 376 22 L375 22 L370 22 L368 21 C362 18 312 15 266 14 L98 14 L98 590 C98 623 100 655 102 655 L102 657 L102 660 L98 660 L69 660 L41 660 L37 660 L37 657 L37 655 C39 655 41 623 41 590 L41 70 C41 37 39 5 37 5 L37 3 L37 0 L41 0 L69 0 L98 0 L302 0 L371 0 L372 0 L373 7 L373 7 Z " />
<glyph glyph-name="lcaron" unicode="&#x13e;" horiz-adv-x="137" d="M193 608 C208 653 222 710 222 715 C222 720 204 724 197 724 C190 724 174 655 168 617 L138 456 L143 454 L193 608 L193 608 Z M69 0 L89 0 L93 0 L93 3 L93 5 L92 5 C90 5 89 37 89 70 L89 640 L89 710 L89 720 L81 720 L51 710 L49 710 L49 709 L45 708 L45 705 L46 704 C48 697 49 675 49 629 L49 70 C49 37 47 5 46 5 L45 5 L45 3 L45 0 L49 0 L69 0 L69 0 Z " />
<glyph glyph-name="Lslash" unicode="&#x141;" horiz-adv-x="414" d="M-9 273 L41 293 L41 70 C41 37 39 5 37 5 L37 3 L37 0 L41 0 L69 0 L98 0 L302 0 L371 0 L372 0 L373 7 C374 11 375 18 376 22 L375 22 L370 22 L368 21 C362 18 312 15 266 14 L98 14 L98 317 L235 373 L235 387 L98 331 L98 590 C98 623 100 655 102 655 L102 657 L102 660 L98 660 L69 660 L41 660 L37 660 L37 657 L37 655 C39 655 41 623 41 590 L41 307 L-9 287 L-9 273 L-9 273 Z " />
<glyph glyph-name="lslash" unicode="&#x142;" horiz-adv-x="137" d="M-51 303 L49 345 L49 70 C49 37 47 5 46 5 L45 5 L45 3 L45 0 L49 0 L69 0 L89 0 L93 0 L93 3 L93 5 L92 5 C90 5 89 37 89 70 L89 361 L189 403 L189 417 L89 375 L89 640 L89 710 L89 720 L81 720 L51 710 L49 710 L49 709 L45 708 L45 705 L46 704 C48 697 49 675 49 629 L49 359 L-51 317 L-51 303 L-51 303 Z " />
<glyph glyph-name="Nacute" unicode="&#x143;" horiz-adv-x="521" d="M234 691 L343 821 C365 847 386 874 386 877 C386 881 369 893 363 893 C362 893 342 865 323 837 L230 695 L234 691 L234 691 Z M469 590 L469 71 L103 660 L64 660 L55 660 L47 660 L43 660 L43 657 L43 655 C45 655 47 623 47 590 L47 70 C47 37 45 5 43 5 L43 3 L43 0 L47 0 L55 0 L64 0 L68 0 L68 3 L68 5 L67 5 C66 5 64 37 64 70 L64 614 L443 8 L453 -9 L487 -9 L487 29 L487 590 L487 626 C488 643 489 655 490 655 L490 657 L490 660 L487 660 L478 660 L469 660 L465 660 L465 657 L465 655 L466 655 C468 655 469 623 469 590 L469 590 Z " />
<glyph glyph-name="nacute" unicode="&#x144;" horiz-adv-x="445" d="M148 531 L257 661 C278 687 299 714 299 717 C299 721 282 733 277 733 C275 733 255 705 236 677 L143 535 L148 531 L148 531 Z M362 70 C362 37 360 5 359 5 L358 5 L358 3 L358 0 L362 0 L382 0 L402 0 L406 0 L406 3 L406 5 L405 5 C404 5 402 37 402 70 L402 336 C402 421 356 505 284 505 C219 505 126 455 89 402 L89 420 L89 500 L81 500 L45 488 L45 485 L45 484 C48 477 49 455 49 409 L49 70 C49 37 47 5 45 5 L45 3 L45 0 L49 0 L69 0 L89 0 L92 0 L92 3 L92 5 C91 5 90 17 89 34 L89 70 L89 396 C119 438 198 478 253 478 C319 478 362 406 362 332 L362 70 L362 70 Z " />
<glyph glyph-name="Ncaron" unicode="&#x147;" horiz-adv-x="521" d="M267 758 L375 926 L379 923 L280 727 C279 724 273 715 268 715 C262 715 256 723 255 726 L156 923 L160 926 L267 758 L267 758 Z M470 590 L470 71 L104 660 L65 660 L56 660 L48 660 L44 660 L44 657 L44 655 C46 655 48 623 48 590 L48 70 C48 37 46 5 44 5 L44 3 L44 0 L48 0 L56 0 L65 0 L69 0 L69 3 L69 5 L68 5 C67 5 65 37 65 70 L65 614 L444 8 L454 -9 L488 -9 L488 29 L488 590 L488 626 C489 643 490 655 491 655 L491 657 L491 660 L488 660 L479 660 L470 660 L466 660 L466 657 L466 655 L467 655 C469 655 470 623 470 590 L470 590 Z " />
<glyph glyph-name="ncaron" unicode="&#x148;" horiz-adv-x="445" d="M226 598 L334 766 L338 763 L239 567 C238 564 231 555 226 555 C221 555 215 563 214 566 L115 763 L119 766 L226 598 L226 598 Z M363 70 C363 37 361 5 360 5 L359 5 L359 3 L359 0 L363 0 L383 0 L403 0 L407 0 L407 3 L407 5 L406 5 C405 5 403 37 403 70 L403 336 C403 421 357 505 285 505 C220 505 127 455 90 402 L90 420 L90 500 L82 500 L46 488 L46 485 L46 484 C49 477 50 455 50 409 L50 70 C50 37 48 5 46 5 L46 3 L46 0 L50 0 L70 0 L90 0 L93 0 L93 3 L93 5 C92 5 91 17 90 34 L90 70 L90 396 C120 438 199 478 254 478 C320 478 363 406 363 332 L363 70 L363 70 Z " />
<glyph glyph-name="Omacron" unicode="&#x14c;" horiz-adv-x="729" d="M235 771 L506 771 L506 794 L235 794 L235 771 L235 771 Z M370 9 C234 9 125 184 125 330 C125 476 234 651 370 651 C507 651 616 476 616 330 C616 184 507 9 370 9 L370 9 Z M61 330 C61 178 198 -5 370 -5 C542 -5 679 178 679 330 C679 482 542 665 370 665 C198 665 61 482 61 330 L61 330 Z " />
<glyph glyph-name="omacron" unicode="&#x14d;" horiz-adv-x="556" d="M143 611 L414 611 L414 634 L143 634 L143 611 L143 611 Z M278 4 C185 4 94 126 94 250 C94 374 185 496 278 496 C371 496 462 374 462 250 C462 126 371 4 278 4 L278 4 Z M50 250 C50 121 163 -5 278 -5 C394 -5 507 121 507 250 C507 379 394 505 278 505 C163 505 50 379 50 250 L50 250 Z " />
<glyph glyph-name="Obreve" unicode="&#x14e;" horiz-adv-x="729" d="M273 872 C280 822 328 773 370 773 C413 773 461 822 468 872 L461 873 C456 836 411 800 370 800 C330 800 285 836 280 873 L273 872 L273 872 Z M370 9 C234 9 125 184 125 330 C125 476 234 651 370 651 C507 651 616 476 616 330 C616 184 507 9 370 9 L370 9 Z M61 330 C61 178 198 -5 370 -5 C542 -5 679 178 679 330 C679 482 542 665 370 665 C198 665 61 482 61 330 L61 330 Z " />
<glyph glyph-name="obreve" unicode="&#x14f;" horiz-adv-x="556" d="M181 712 C188 662 236 613 278 613 C321 613 369 662 376 712 L369 713 C364 676 319 640 278 640 C238 640 193 676 188 713 L181 712 L181 712 Z M278 4 C185 4 94 126 94 250 C94 374 185 496 278 496 C371 496 462 374 462 250 C462 126 371 4 278 4 L278 4 Z M50 250 C50 121 163 -5 278 -5 C394 -5 507 121 507 250 C507 379 394 505 278 505 C163 505 50 379 50 250 L50 250 Z " />
<glyph glyph-name="Racute" unicode="&#x154;" horiz-adv-x="501" d="M162 691 L271 821 C293 847 314 874 314 877 C314 881 297 893 291 893 C289 893 270 865 251 837 L158 695 L162 691 L162 691 Z M501 0 L501 9 L496 9 C484 9 469 26 419 97 L242 352 C339 366 426 435 426 505 C426 584 328 661 229 661 L112 661 L83 661 L54 661 L51 661 L51 658 L51 656 C53 656 54 624 54 591 L54 71 C54 38 53 6 51 6 L51 4 L51 1 L54 1 L83 1 L112 1 L116 1 L116 4 L116 6 L115 6 C114 6 112 38 112 71 L112 350 L190 350 L358 107 C418 21 442 1 483 1 L501 0 L501 0 Z M206 361 L182 361 L112 361 L112 650 L229 650 C298 650 365 578 365 505 C365 432 286 361 206 361 L206 361 Z " />
<glyph glyph-name="Rcaron" unicode="&#x158;" horiz-adv-x="501" d="M501 0 L501 9 L496 9 C484 9 469 26 419 97 L242 352 C339 366 426 435 426 505 C426 584 328 661 229 661 L112 661 L83 661 L54 661 L51 661 L51 658 L51 656 C53 656 54 624 54 591 L54 71 C54 38 53 6 51 6 L51 4 L51 1 L54 1 L83 1 L112 1 L116 1 L116 4 L116 6 L115 6 C114 6 112 38 112 71 L112 350 L190 350 L358 107 C418 21 442 1 483 1 L501 0 L501 0 Z M240 760 L348 927 L352 924 L253 728 C251 725 245 716 240 716 C235 716 229 724 227 727 L129 924 L133 927 L240 760 L240 760 Z M206 361 L182 361 L112 361 L112 650 L229 650 C298 650 365 578 365 505 C365 432 286 361 206 361 L206 361 Z " />
<glyph glyph-name="rcaron" unicode="&#x159;" horiz-adv-x="310" d="M136 598 L244 766 L248 763 L149 567 C148 564 141 555 136 555 C131 555 125 563 124 566 L25 763 L29 766 L136 598 L136 598 Z M70 0 L90 0 L93 0 L93 3 L93 5 C92 5 91 17 90 34 L90 70 L90 385 C110 433 157 475 191 475 C216 475 257 451 282 451 C292 451 301 460 301 470 C301 488 270 505 223 505 C177 505 115 450 90 390 L90 420 L84 500 L76 500 L46 488 L46 485 L46 484 C49 477 50 455 50 409 L50 70 C50 37 48 5 46 5 L46 3 L46 0 L50 0 L70 0 L70 0 Z " />
<glyph glyph-name="Sacute" unicode="&#x15a;" horiz-adv-x="473" d="M173 691 L282 821 C303 847 325 874 325 877 C325 881 308 893 302 893 C300 893 281 865 262 837 L169 695 L173 691 L173 691 Z M322 620 L322 620 C326 618 350 601 374 583 C376 581 378 579 380 577 L381 578 C383 577 385 576 387 575 C388 574 390 572 391 572 L393 572 L395 572 L395 591 L388 584 L388 584 L395 590 C363 628 278 666 223 666 C136 666 51 575 51 482 C51 423 132 338 214 309 C302 279 388 198 388 146 C388 77 322 10 255 10 C226 10 191 17 159 28 C134 38 92 61 63 81 C61 83 59 85 58 87 L57 86 C55 87 53 88 51 89 C50 90 48 92 46 92 L44 92 L42 92 L42 73 L50 80 L50 80 L42 73 C74 35 180 -3 256 -3 C344 -3 430 83 430 171 C430 233 345 324 258 354 C174 383 92 458 92 506 C92 580 156 653 221 653 C250 653 289 640 323 622 L322 620 L322 620 Z " />
<glyph glyph-name="sacute" unicode="&#x15b;" horiz-adv-x="392" d="M118 531 L227 661 C249 687 270 714 270 717 C270 721 253 733 247 733 C246 733 226 705 207 677 L114 535 L118 531 L118 531 Z M307 432 C308 431 309 430 310 429 L311 429 C312 428 313 427 314 426 C315 425 316 425 316 424 L318 424 L320 424 L320 437 L315 432 L315 432 L320 437 C293 470 232 503 197 503 C132 503 68 441 68 378 C68 335 132 264 197 234 C254 208 310 150 310 116 C310 59 260 2 209 2 C190 2 167 6 145 13 L145 13 C124 19 86 40 63 57 C62 59 61 61 60 63 L59 62 C58 63 57 64 56 65 C55 66 53 68 52 68 L50 68 L48 68 L48 55 L54 60 L54 60 L48 55 C74 24 152 -6 206 -6 C275 -6 343 62 343 132 C343 171 285 236 225 263 C161 292 98 357 98 393 C98 445 147 495 197 495 C210 495 228 488 247 478 C245 477 270 458 307 432 L307 432 Z " />
<glyph glyph-name="Scircumflex" unicode="&#x15c;" horiz-adv-x="473" d="M221 862 L329 694 L333 697 L234 893 C233 896 227 905 221 905 C216 905 210 897 209 894 L110 697 L114 694 L221 862 L221 862 Z M323 620 L323 620 C327 618 351 601 375 583 C377 581 379 579 381 577 L382 578 C384 577 386 576 388 575 C389 574 391 572 392 572 L394 572 L396 572 L396 591 L389 584 L389 584 L396 590 C364 628 279 666 224 666 C137 666 52 575 52 482 C52 423 133 338 215 309 C303 279 389 198 389 146 C389 77 323 10 256 10 C227 10 192 17 160 28 C135 38 93 61 64 81 C62 83 60 85 59 87 L58 86 C56 87 54 88 52 89 C51 90 49 92 47 92 L45 92 L43 92 L43 73 L51 80 L51 80 L43 73 C75 35 181 -3 257 -3 C345 -3 431 83 431 171 C431 233 346 324 259 354 C175 383 93 458 93 506 C93 580 157 653 222 653 C251 653 290 640 324 622 L323 620 L323 620 Z " />
<glyph glyph-name="Scedilla" unicode="&#x15e;" horiz-adv-x="473" d="M220 -94 C235 -87 262 -79 275 -79 C303 -79 330 -107 330 -135 C330 -172 299 -208 267 -208 C239 -208 201 -200 189 -192 L187 -196 C204 -208 247 -220 275 -220 C315 -220 354 -178 354 -135 C354 -102 320 -71 285 -71 C268 -71 238 -78 224 -86 L220 -94 L220 -94 Z M220 -94 L264 -5 C349 1 429 84 429 169 C429 231 344 322 257 352 C173 381 91 456 91 504 C91 578 155 651 220 651 C249 651 288 638 322 620 L322 620 C326 618 350 601 374 583 C376 581 378 579 380 577 L381 578 C383 577 385 576 387 575 C388 574 390 572 391 572 L393 572 L395 572 L395 591 L388 584 L388 584 L395 590 C363 628 278 666 223 666 C136 666 51 575 51 482 C51 423 132 338 214 309 C302 279 388 198 388 146 C388 77 322 10 255 10 C226 10 191 17 159 28 C134 38 92 61 63 81 C61 83 59 85 58 87 L57 86 C55 87 53 88 51 89 C50 90 48 92 46 92 L44 92 L42 92 L42 73 L50 80 L50 80 L42 73 C73 36 176 -1 252 -2 L219 -90 L220 -94 L220 -94 Z " />
<glyph glyph-name="scedilla" unicode="&#x15f;" horiz-adv-x="392" d="M175 -85 L214 -4 C280 2 342 67 342 134 C342 173 284 238 224 265 C160 294 97 359 97 395 C97 447 146 497 196 497 C209 497 227 490 246 480 C244 479 269 460 306 434 C307 433 308 432 309 431 L310 431 C311 430 312 429 313 428 C314 427 315 427 315 426 L317 426 L319 426 L319 439 L314 434 L314 434 L319 439 C292 472 231 505 196 505 C131 505 67 443 67 380 C67 337 131 266 196 236 C253 210 309 152 309 118 C309 61 259 4 208 4 C189 4 166 8 144 15 L144 15 C123 21 85 42 62 59 C61 61 60 63 59 65 L58 64 C57 65 56 66 55 67 C54 68 52 70 51 70 L49 70 L47 70 L47 57 L53 62 L53 62 L47 57 C72 27 147 -2 201 -3 L168 -91 L171 -92 C186 -85 213 -77 226 -77 C253 -77 280 -105 280 -133 C280 -170 249 -206 218 -206 C189 -206 151 -198 139 -190 L138 -194 C154 -206 198 -218 226 -218 C266 -218 305 -176 305 -133 C305 -100 270 -69 235 -69 C218 -69 189 -76 175 -84 L175 -85 L175 -85 Z " />
<glyph glyph-name="Scaron" unicode="&#x160;" horiz-adv-x="473" d="M221 758 L329 926 L333 923 L234 727 C233 724 227 715 221 715 C216 715 210 723 209 726 L110 923 L114 926 L221 758 L221 758 Z M323 620 L323 620 C327 618 351 601 375 583 C377 581 379 579 381 577 L382 578 C384 577 386 576 388 575 C389 574 391 572 392 572 L394 572 L396 572 L396 591 L389 584 L389 584 L396 590 C364 628 279 666 224 666 C137 666 52 575 52 482 C52 423 133 338 215 309 C303 279 389 198 389 146 C389 77 323 10 256 10 C227 10 192 17 160 28 C135 38 93 61 64 81 C62 83 60 85 59 87 L58 86 C56 87 54 88 52 89 C51 90 49 92 47 92 L45 92 L43 92 L43 73 L51 80 L51 80 L43 73 C75 35 181 -3 257 -3 C345 -3 431 83 431 171 C431 233 346 324 259 354 C175 383 93 458 93 506 C93 580 157 653 222 653 C251 653 290 640 324 622 L323 620 L323 620 Z " />
<glyph glyph-name="scaron" unicode="&#x161;" horiz-adv-x="392" d="M196 599 L304 766 L308 763 L209 567 C207 564 201 555 196 555 C191 555 185 563 184 566 L85 763 L89 766 L196 599 L196 599 Z M307 432 C308 431 309 430 310 429 L311 429 C312 428 313 427 314 426 C315 425 316 425 316 424 L318 424 L320 424 L320 437 L315 432 L315 432 L320 437 C293 470 232 503 197 503 C132 503 68 441 68 378 C68 335 132 264 197 234 C254 208 310 150 310 116 C310 59 260 2 209 2 C190 2 167 6 145 13 L145 13 C124 19 86 40 63 57 C62 59 61 61 60 63 L59 62 C58 63 57 64 56 65 C55 66 53 68 52 68 L50 68 L48 68 L48 55 L54 60 L54 60 L48 55 C74 24 152 -6 206 -6 C275 -6 343 62 343 132 C343 171 285 236 225 263 C161 292 98 357 98 393 C98 445 147 495 197 495 C210 495 228 488 247 478 C245 477 270 458 307 432 L307 432 Z " />
<glyph glyph-name="Tcaron" unicode="&#x164;" horiz-adv-x="590" d="M295 759 L403 926 L407 923 L308 727 C306 724 300 715 295 715 C290 715 284 723 283 726 L184 923 L188 926 L295 759 L295 759 Z M562 653 L561 660 L550 660 L491 660 L99 660 L40 660 L29 660 L29 653 L27 638 L28 638 L31 638 L34 639 C41 643 88 646 128 646 L266 646 L266 70 C266 37 265 5 263 5 L262 5 L262 3 L262 0 L266 0 L295 0 L324 0 L328 0 L328 3 L328 5 L327 5 C326 5 324 37 324 70 L324 646 L462 646 C503 646 549 643 557 639 L559 638 L563 638 C563 641 562 649 562 653 L562 653 Z " />
<glyph glyph-name="tcaron" unicode="&#x165;" horiz-adv-x="321" d="M290 500 L140 500 L140 640 L133 640 L103 496 L103 496 L115 556 C108 527 66 494 28 490 L25 490 L25 485 L100 485 L100 112 C100 36 127 -4 177 -4 C214 -4 267 40 301 85 L298 88 C269 50 226 14 197 14 C159 14 139 45 139 105 L140 485 L290 485 L290 500 L290 500 Z M394 609 C409 654 424 711 424 716 C424 721 405 725 399 725 C392 725 376 656 369 618 L339 457 L344 455 L394 609 L394 609 Z " />
<glyph glyph-name="Utilde" unicode="&#x168;" horiz-adv-x="504" d="M141 755 C141 789 160 823 179 823 C225 823 289 761 334 761 C363 761 391 804 391 847 L384 847 C384 817 364 787 343 787 C298 787 233 850 188 850 C161 850 134 803 134 755 L141 755 L141 755 Z M44 590 L44 206 C44 99 132 -5 267 -5 C396 -5 480 84 480 176 L480 580 C480 618 482 655 484 655 L485 655 C484 655 484 656 485 657 C484 659 484 660 485 660 L480 660 L474 660 L467 660 L462 660 L462 657 L462 655 L463 655 C465 655 467 618 467 580 L467 180 C467 97 391 15 275 15 C170 15 102 104 102 194 L102 590 C102 623 104 655 105 655 L106 655 L106 657 L106 660 L102 660 L73 660 L44 660 L41 660 L41 657 L41 655 C43 655 44 623 44 590 L44 590 Z " />
<glyph glyph-name="utilde" unicode="&#x169;" horiz-adv-x="410" d="M74 595 C74 629 93 663 112 663 C158 663 222 601 267 601 C296 601 324 644 324 687 L317 687 C317 657 297 627 276 627 C231 627 167 690 121 690 C94 690 67 643 67 595 L74 595 L74 595 Z M332 430 L332 82 C313 50 256 20 192 20 C117 20 58 89 58 159 L59 499 L39 499 L19 499 L15 499 L15 496 L15 494 C17 494 19 462 19 429 L19 155 C19 74 82 -6 160 -6 C235 -6 304 32 332 73 L332 9 L332 -1 L340 -1 L370 9 L372 9 L372 10 L376 11 L376 14 L375 15 C373 22 372 44 372 90 L372 499 L352 499 L332 499 L328 499 L328 496 L328 494 L329 494 C330 494 332 462 332 429 L332 430 L332 430 Z " />
<glyph glyph-name="Umacron" unicode="&#x16a;" horiz-adv-x="504" d="M127 771 L398 771 L398 794 L127 794 L127 771 L127 771 Z M44 590 L44 206 C44 99 132 -5 267 -5 C396 -5 480 84 480 176 L480 580 C480 618 482 655 484 655 L485 655 C484 655 484 656 485 657 C484 659 484 660 485 660 L480 660 L474 660 L467 660 L462 660 L462 657 L462 655 L463 655 C465 655 467 618 467 580 L467 180 C467 97 391 15 275 15 C170 15 102 104 102 194 L102 590 C102 623 104 655 105 655 L106 655 L106 657 L106 660 L102 660 L73 660 L44 660 L41 660 L41 657 L41 655 C43 655 44 623 44 590 L44 590 Z " />
<glyph glyph-name="umacron" unicode="&#x16b;" horiz-adv-x="410" d="M60 611 L331 611 L331 634 L60 634 L60 611 L60 611 Z M332 430 L332 82 C313 50 256 20 192 20 C117 20 58 89 58 159 L59 499 L39 499 L19 499 L15 499 L15 496 L15 494 C17 494 19 462 19 429 L19 155 C19 74 82 -6 160 -6 C235 -6 304 32 332 73 L332 9 L332 -1 L340 -1 L370 9 L372 9 L372 10 L376 11 L376 14 L375 15 C373 22 372 44 372 90 L372 499 L352 499 L332 499 L328 499 L328 496 L328 494 L329 494 C330 494 332 462 332 429 L332 430 L332 430 Z " />
<glyph glyph-name="Ubreve" unicode="&#x16c;" horiz-adv-x="504" d="M165 872 C172 822 220 773 262 773 C305 773 353 822 360 872 L353 873 C348 836 303 800 262 800 C222 800 177 836 172 873 L165 872 L165 872 Z M44 590 L44 206 C44 99 132 -5 267 -5 C396 -5 480 84 480 176 L480 580 C480 618 482 655 484 655 L485 655 C484 655 484 656 485 657 C484 659 484 660 485 660 L480 660 L474 660 L467 660 L462 660 L462 657 L462 655 L463 655 C465 655 467 618 467 580 L467 180 C467 97 391 15 275 15 C170 15 102 104 102 194 L102 590 C102 623 104 655 105 655 L106 655 L106 657 L106 660 L102 660 L73 660 L44 660 L41 660 L41 657 L41 655 C43 655 44 623 44 590 L44 590 Z " />
<glyph glyph-name="ubreve" unicode="&#x16d;" horiz-adv-x="410" d="M98 712 C105 662 153 613 195 613 C238 613 286 662 293 712 L286 713 C281 676 236 640 195 640 C155 640 110 676 105 713 L98 712 L98 712 Z M332 430 L332 82 C313 50 256 20 192 20 C117 20 58 89 58 159 L59 499 L39 499 L19 499 L15 499 L15 496 L15 494 C17 494 19 462 19 429 L19 155 C19 74 82 -6 160 -6 C235 -6 304 32 332 73 L332 9 L332 -1 L340 -1 L370 9 L372 9 L372 10 L376 11 L376 14 L375 15 C373 22 372 44 372 90 L372 499 L352 499 L332 499 L328 499 L328 496 L328 494 L329 494 C330 494 332 462 332 429 L332 430 L332 430 Z " />
<glyph glyph-name="Uring" unicode="&#x16e;" horiz-adv-x="504" d="M262 704 C225 704 180 750 180 788 C180 830 221 871 262 871 C304 871 345 830 345 788 C345 750 300 704 262 704 L262 704 Z M169 788 C169 745 220 695 262 695 C305 695 356 745 356 788 C356 834 310 880 262 880 C215 880 169 834 169 788 L169 788 Z M44 590 L44 206 C44 99 132 -5 267 -5 C396 -5 480 84 480 176 L480 580 C480 618 482 655 484 655 L485 655 C484 655 484 656 485 657 C484 659 484 660 485 660 L480 660 L474 660 L467 660 L462 660 L462 657 L462 655 L463 655 C465 655 467 618 467 580 L467 180 C467 97 391 15 275 15 C170 15 102 104 102 194 L102 590 C102 623 104 655 105 655 L106 655 L106 657 L106 660 L102 660 L73 660 L44 660 L41 660 L41 657 L41 655 C43 655 44 623 44 590 L44 590 Z " />
<glyph glyph-name="uring" unicode="&#x16f;" horiz-adv-x="410" d="M195 544 C158 544 113 590 113 628 C113 670 154 711 195 711 C237 711 278 670 278 628 C278 590 233 544 195 544 L195 544 Z M102 628 C102 585 153 535 195 535 C238 535 289 585 289 628 C289 674 243 720 195 720 C148 720 102 674 102 628 L102 628 Z M332 430 L332 82 C313 50 256 20 192 20 C117 20 58 89 58 159 L59 499 L39 499 L19 499 L15 499 L15 496 L15 494 C17 494 19 462 19 429 L19 155 C19 74 82 -6 160 -6 C235 -6 304 32 332 73 L332 9 L332 -1 L340 -1 L370 9 L372 9 L372 10 L376 11 L376 14 L375 15 C373 22 372 44 372 90 L372 499 L352 499 L332 499 L328 499 L328 496 L328 494 L329 494 C330 494 332 462 332 429 L332 430 L332 430 Z " />
<glyph glyph-name="Wcircumflex" unicode="&#x174;" horiz-adv-x="748" d="M25 590 L25 590 L209 -15 L220 -15 L398 670 L387 670 L209 -15 L226 52 L85 590 L86 590 C77 623 70 655 71 655 L72 655 L72 657 L72 660 L67 660 L35 660 L4 660 L2 660 L2 657 L2 655 L3 655 C4 655 15 623 25 590 L25 590 Z M393 861 L500 694 L504 697 L406 893 C404 896 398 905 393 905 C388 905 382 897 380 894 L281 697 L285 694 L393 861 L393 861 Z M711 598 L552 -15 L563 -15 L722 590 L722 590 C730 623 740 655 742 655 L743 655 L743 657 L743 660 L740 660 L734 660 L727 660 L722 660 L722 657 L722 655 C724 655 718 628 711 598 L711 598 Z M552 -15 L570 56 L398 670 L379 594 L552 -15 L552 -15 Z " />
<glyph glyph-name="Ycircumflex" unicode="&#x176;" horiz-adv-x="482" d="M414 570 L414 570 L268 295 L255 295 L125 590 L125 590 C111 623 98 655 99 655 L99 657 L99 660 L94 660 L60 660 L25 660 L25 657 L25 655 C26 655 32 644 40 628 L220 265 L220 70 C220 37 218 5 217 5 L216 5 L216 3 L216 0 L220 0 L249 0 L278 0 L282 0 L282 3 L282 5 L281 5 C280 5 278 37 278 70 L278 295 L449 614 C462 637 473 655 474 655 L475 655 L475 657 L475 660 L474 660 L467 660 L461 660 L455 660 L455 657 L455 655 L456 655 C457 655 436 613 413 570 L414 570 L414 570 Z M249 861 L356 694 L361 697 L262 893 C260 896 254 905 249 905 C244 905 238 897 236 894 L137 697 L142 694 L249 861 L249 861 Z " />
<glyph glyph-name="Ydieresis" unicode="&#x178;" horiz-adv-x="482" d="M336 730 C348 730 360 742 360 754 C360 767 348 779 336 779 C324 779 312 767 312 754 C312 742 324 730 336 730 L336 730 Z M164 730 C176 730 188 742 188 754 C188 767 176 779 164 779 C152 779 140 767 140 754 C140 742 152 730 164 730 L164 730 Z M414 570 L414 570 L268 295 L255 295 L125 590 L125 590 C111 623 98 655 99 655 L99 657 L99 660 L94 660 L60 660 L25 660 L25 657 L25 655 C26 655 32 644 40 628 L220 265 L220 70 C220 37 218 5 217 5 L216 5 L216 3 L216 0 L220 0 L249 0 L278 0 L282 0 L282 3 L282 5 L281 5 C280 5 278 37 278 70 L278 295 L449 614 C462 637 473 655 474 655 L475 655 L475 657 L475 660 L474 660 L467 660 L461 660 L455 660 L455 657 L455 655 L456 655 C457 655 436 613 413 570 L414 570 L414 570 Z " />
<glyph glyph-name="Zacute" unicode="&#x179;" horiz-adv-x="540" d="M314 691 L423 821 C445 847 466 874 466 877 C466 881 449 893 443 893 C441 893 421 865 402 837 L309 695 L314 691 L314 691 Z M485 8 C486 11 487 19 488 22 L487 22 C484 23 482 23 482 23 L480 22 C474 18 424 15 378 15 L126 15 L500 660 L467 660 L434 660 L191 660 L132 660 L121 660 L119 653 C118 649 116 643 116 639 L120 639 L122 640 C130 643 177 646 217 646 L426 646 L52 0 L84 0 L117 0 L414 0 L483 0 L484 0 L485 8 L485 8 Z " />
<glyph glyph-name="zacute" unicode="&#x17a;" horiz-adv-x="454" d="M165 531 L274 661 C296 687 317 714 317 717 C317 721 300 733 294 733 C292 733 273 705 254 677 L161 535 L165 531 L165 531 Z M395 5 C396 7 397 13 397 16 L396 16 C394 17 391 17 391 17 L389 16 C383 12 333 9 288 9 L111 9 L404 500 L381 500 L358 500 L141 500 L81 500 L71 500 L69 495 C69 493 68 489 67 486 L71 486 L74 487 C81 489 128 491 168 491 L353 491 L59 0 L83 0 L106 0 L325 0 L393 0 L395 0 L395 5 L395 5 Z " />
<glyph glyph-name="Zdot" unicode="&#x17b;" horiz-adv-x="540" d="M316 730 C328 730 340 742 340 754 C340 767 328 779 316 779 C303 779 291 767 291 754 C291 742 303 730 316 730 L316 730 Z M485 8 C486 11 487 19 488 22 L487 22 C484 23 482 23 482 23 L480 22 C474 18 424 15 378 15 L126 15 L500 660 L467 660 L434 660 L191 660 L132 660 L121 660 L119 653 C118 649 116 643 116 639 L120 639 L122 640 C130 643 177 646 217 646 L426 646 L52 0 L84 0 L117 0 L414 0 L483 0 L484 0 L485 8 L485 8 Z " />
<glyph glyph-name="zdot" unicode="&#x17c;" horiz-adv-x="454" d="M243 570 C255 570 267 582 267 594 C267 607 255 619 243 619 C230 619 218 607 218 594 C218 582 230 570 243 570 L243 570 Z M395 5 C396 7 397 13 397 16 L396 16 C394 17 391 17 391 17 L389 16 C383 12 333 9 288 9 L111 9 L404 500 L381 500 L358 500 L141 500 L81 500 L71 500 L69 495 C69 493 68 489 67 486 L71 486 L74 487 C81 489 128 491 168 491 L353 491 L59 0 L83 0 L106 0 L325 0 L393 0 L395 0 L395 5 L395 5 Z " />
<glyph glyph-name="Zcaron" unicode="&#x17d;" horiz-adv-x="540" d="M316 758 L424 926 L428 923 L330 727 C328 724 322 715 317 715 C312 715 306 723 304 726 L205 923 L209 926 L316 758 L316 758 Z M486 8 C487 11 488 19 489 22 L488 22 C485 23 483 23 483 23 L481 22 C475 18 425 15 379 15 L127 15 L501 660 L468 660 L435 660 L192 660 L133 660 L122 660 L120 653 C119 649 117 643 117 639 L121 639 L123 640 C131 643 178 646 218 646 L427 646 L53 0 L85 0 L118 0 L415 0 L484 0 L485 0 L486 8 L486 8 Z " />
<glyph glyph-name="zcaron" unicode="&#x17e;" horiz-adv-x="454" d="M243 599 L350 766 L354 763 L256 567 C254 564 248 555 243 555 C238 555 232 563 230 566 L131 763 L135 766 L243 599 L243 599 Z M395 5 C396 7 397 13 397 16 L396 16 C394 17 391 17 391 17 L389 16 C383 12 333 9 288 9 L111 9 L404 500 L381 500 L358 500 L141 500 L81 500 L71 500 L69 495 C69 493 68 489 67 486 L71 486 L74 487 C81 489 128 491 168 491 L353 491 L59 0 L83 0 L106 0 L325 0 L393 0 L395 0 L395 5 L395 5 Z " />
<glyph glyph-name="oogonek" unicode="&#x1eb;" horiz-adv-x="678" d="M683 -51 L679 -48 C658 -74 595 -99 553 -99 C491 -99 404 -53 352 -4 C505 0 628 152 628 278 C628 406 502 559 346 559 C189 559 63 406 63 278 C63 152 185 1 338 -4 C402 -66 496 -125 548 -125 C585 -125 651 -88 683 -50 L683 -51 L683 -51 Z M346 9 C220 9 120 156 120 278 C120 400 220 546 346 546 C471 546 571 400 571 278 C571 156 471 9 346 9 L346 9 Z " />
<glyph glyph-name="Adotabove" unicode="&#x226;" horiz-adv-x="495" d="M234 730 C247 730 259 742 259 754 C259 767 247 779 234 779 C222 779 210 767 210 754 C210 742 222 730 234 730 L234 730 Z M454 70 L453 70 L241 675 L227 675 L34 70 L34 70 C23 37 11 5 10 5 L9 5 L9 3 L9 0 L12 0 L21 0 L31 0 L36 0 L36 3 L36 5 C35 5 38 21 44 43 L112 260 L328 260 L406 28 C410 14 413 5 412 5 L411 5 L411 3 L411 0 L415 0 L447 0 L478 0 L481 0 L481 3 L481 5 C479 5 465 37 454 70 L454 70 Z M323 275 L117 275 L216 594 L323 275 L323 275 Z " />
<glyph glyph-name="G_sc" unicode="&#x262;" horiz-adv-x="658" d="M517 190 L517 50 C461 27 386 8 342 8 C229 8 119 141 119 277 C119 412 229 545 342 545 C374 545 413 536 449 522 C485 506 531 478 550 459 L554 455 L557 455 L559 455 L559 470 C522 514 415 557 342 557 C201 557 62 418 62 276 C62 133 201 -6 342 -6 C399 -6 508 25 563 56 L563 189 C563 222 565 254 566 254 L567 254 L567 256 L567 259 L563 259 L540 259 L516 259 L512 259 L512 256 L512 254 L513 254 C514 254 516 222 516 189 L517 190 L517 190 Z " />
<glyph glyph-name="I_sc" unicode="&#x26a;" horiz-adv-x="135" d="M66 0 L92 0 L96 0 L96 3 L96 5 L95 5 C94 5 92 37 92 70 L92 483 C92 516 94 549 95 548 L96 548 L96 551 L96 553 C88 554 74 554 66 553 C58 554 44 554 36 553 L36 551 L36 548 L37 548 C38 549 40 516 40 483 L40 70 C40 37 38 5 37 5 L36 5 L36 3 L36 0 L40 0 L66 0 L66 0 Z " />
<glyph glyph-name="N_sc" unicode="&#x274;" horiz-adv-x="468" d="M418 483 L418 63 L98 553 L63 553 L55 553 C52 554 46 554 43 553 L43 551 L43 548 L44 548 C45 549 47 516 47 483 L47 70 C47 37 45 5 44 5 L43 5 L43 3 L43 0 L47 0 L55 0 L63 0 L66 0 L66 3 L66 5 C64 5 63 37 63 70 L63 513 L394 7 L404 -8 L434 -8 L434 26 L434 483 C434 516 435 549 437 548 L438 548 L438 551 L438 553 C435 554 429 554 426 553 C423 554 417 554 414 553 L414 551 L414 548 L415 548 C416 549 418 516 418 483 L418 483 Z " />
<glyph glyph-name="R_sc" unicode="&#x280;" horiz-adv-x="457" d="M457 0 L457 8 L452 8 C441 8 424 25 364 98 L204 295 C292 307 370 365 370 425 C370 489 280 553 188 553 L108 553 L82 553 C74 554 60 554 52 553 L52 551 L52 548 L53 548 C54 549 56 516 56 483 L56 70 C56 37 54 5 53 5 L52 5 L52 3 L52 0 L56 0 L82 0 L108 0 L112 0 L112 3 L112 5 L111 5 C109 5 108 37 108 70 L108 293 L158 293 L310 106 C379 20 404 0 440 0 L457 0 L457 0 Z M172 303 L150 303 L108 303 L108 543 L188 543 C253 543 316 484 316 425 C316 363 245 303 172 303 L172 303 Z " />
<glyph glyph-name="Y_sc" unicode="&#x28f;" horiz-adv-x="425" d="M386 516 L239 249 L225 249 L115 495 C103 524 92 550 93 549 L94 549 L94 552 L94 554 C85 555 67 555 58 554 C50 555 35 555 26 554 L26 552 L26 549 L27 549 C28 550 44 521 60 490 L197 223 L197 71 C197 38 195 6 193 6 L193 4 L193 1 L197 1 L223 1 L249 1 L252 1 L252 4 L252 6 C251 6 250 18 249 35 L249 71 L249 250 L249 250 L381 487 C399 519 417 550 418 549 L419 549 L419 552 L419 554 C417 555 414 555 412 554 C410 555 404 555 401 554 L401 552 L401 549 C402 550 396 537 386 518 L386 516 L386 516 Z " />
<glyph glyph-name="B_sc" unicode="&#x299;" horiz-adv-x="440" d="M198 329 C192 329 186 329 180 329 L108 327 L108 542 L188 542 C252 542 315 492 315 441 C315 390 260 340 198 329 L198 329 Z M184 321 C278 313 366 240 366 165 C366 86 285 9 203 9 L108 9 L108 320 L172 320 C176 320 180 320 184 320 L184 321 L184 321 Z M224 325 C302 341 367 390 367 440 C367 496 278 551 188 551 L108 551 L82 551 C74 552 60 552 52 551 L52 549 L52 546 L53 546 C54 547 56 514 56 481 L56 68 C56 35 54 3 53 3 L52 3 L52 1 L52 -2 L56 -2 L82 -2 L108 -2 L207 -2 C315 -2 420 80 420 164 C420 237 328 308 224 324 L224 325 L224 325 Z " />
<glyph glyph-name="H_sc" unicode="&#x29c;" horiz-adv-x="543" d="M473 0 L499 0 L503 0 L503 3 L503 5 C501 5 499 37 499 70 L499 483 C499 516 501 549 503 548 L503 551 L503 553 C496 554 481 554 473 553 C466 554 451 554 443 553 L443 551 L443 548 L444 548 C446 549 447 516 447 483 L447 327 L94 327 L94 483 C94 516 96 549 97 548 L98 548 L98 551 L98 553 C90 554 76 554 68 553 C60 554 46 554 38 553 L38 551 L38 548 L39 548 C40 549 42 516 42 483 L42 70 C42 37 40 5 39 5 L38 5 L38 3 L38 0 L42 0 L68 0 L94 0 L98 0 L98 3 L98 5 L97 5 C96 5 94 37 94 70 L94 314 L447 314 L447 70 C447 37 446 5 444 5 L443 5 L443 3 L443 0 L447 0 L473 0 L473 0 Z " />
<glyph glyph-name="L_sc" unicode="&#x29f;" horiz-adv-x="372" d="M330 7 C331 10 332 17 333 20 L332 20 C329 21 327 21 327 21 L325 20 C319 16 269 13 223 13 L94 13 L94 483 C94 516 96 549 97 548 L98 548 L98 551 L98 553 C90 554 76 554 68 553 C60 554 46 554 38 553 L38 551 L38 548 L39 548 C40 549 42 516 42 483 L42 70 C42 37 40 5 39 5 L38 5 L38 3 L38 0 L42 0 L68 0 L94 0 L259 0 L328 0 L329 0 L330 7 L330 7 Z " />
<glyph glyph-name="A_sc" unicode="&#x1d00;" horiz-adv-x="438" d="M57 85 L57 85 L100 218 L287 218 L352 32 C357 16 361 5 360 5 L359 5 L359 3 L359 0 L363 0 L392 0 L420 0 L423 0 L423 3 L423 5 L422 5 C420 5 412 24 403 47 L212 566 L199 566 L34 70 L34 70 C24 37 11 5 9 5 L9 3 L9 0 L11 0 L20 0 L28 0 L34 0 L34 3 L34 5 L33 5 C32 5 43 45 56 85 L57 85 L57 85 Z M282 231 L103 231 L189 495 L282 231 L282 231 Z " />
<glyph glyph-name="C_sc" unicode="&#x1d04;" horiz-adv-x="639" d="M413 15 L413 15 C392 11 372 9 354 9 C236 9 120 142 120 278 C120 413 236 546 354 546 C388 546 429 537 467 523 C502 509 548 482 568 462 L568 462 L568 462 C569 461 570 460 571 459 L575 455 L578 455 L580 455 L580 470 C543 514 431 557 354 557 C207 557 63 418 63 276 C63 133 207 -6 354 -6 C431 -6 543 37 580 81 L574 86 L574 86 L580 81 L580 96 L578 96 L575 96 L571 92 C543 64 465 25 413 14 L413 15 L413 15 Z " />
<glyph glyph-name="D_sc" unicode="&#x1d05;" horiz-adv-x="537" d="M82 0 L108 0 L209 0 C349 0 487 137 487 277 C487 416 337 553 184 553 L108 553 L82 553 C74 554 60 554 52 553 L52 551 L52 548 L53 548 C54 549 56 516 56 483 L56 70 C56 37 54 5 53 5 L52 5 L52 3 L52 0 L56 0 L82 0 L82 0 Z M108 10 L108 543 L184 543 C311 543 435 411 435 277 C435 142 323 10 209 10 L108 10 L108 10 Z " />
<glyph glyph-name="E_sc" unicode="&#x1d07;" horiz-adv-x="372" d="M330 7 C331 10 332 16 333 20 L332 20 L329 20 L327 19 C320 16 264 13 213 13 L94 13 L94 318 L167 318 C210 318 255 316 258 314 L259 314 L263 314 L263 318 L263 325 L263 331 L263 335 L259 335 L258 334 C255 333 210 331 167 331 L94 331 L94 540 L205 540 C255 540 311 537 317 534 L320 533 L323 533 L323 547 L323 553 L318 553 L253 553 L94 553 L68 553 C60 554 46 554 38 553 L38 551 L38 548 L39 548 C40 549 42 516 42 483 L42 70 C42 37 40 5 39 5 L38 5 L38 3 L38 0 L42 0 L68 0 L94 0 L259 0 L328 0 L329 0 L330 7 L330 7 Z " />
<glyph glyph-name="J_sc" unicode="&#x1d0a;" horiz-adv-x="218" d="M122 483 L122 168 C122 65 104 -2 76 -2 C61 -2 41 24 34 50 C32 58 23 66 16 66 C6 66 -2 58 0 50 C8 20 40 -10 66 -10 C132 -10 175 77 175 211 L174 489 C175 520 176 549 178 548 L178 551 L178 553 C171 554 156 554 148 553 C141 554 126 554 119 553 L119 551 L119 548 C121 549 122 516 122 483 L122 483 Z " />
<glyph glyph-name="K_sc" unicode="&#x1d0b;" horiz-adv-x="484" d="M474 -5 L474 3 L469 3 C447 3 358 85 243 210 L145 316 L324 499 C351 526 374 549 375 548 L376 548 L376 551 C377 552 377 553 377 553 C375 554 371 554 370 553 C367 554 361 554 359 553 C359 553 359 552 358 551 C358 550 357 549 358 548 C357 549 325 516 293 483 L136 326 L108 298 L108 483 C108 516 109 549 111 548 L112 548 L112 551 L112 553 C104 554 89 554 82 553 C74 554 60 554 52 553 L52 551 L52 548 L53 548 C54 549 56 516 56 483 L56 70 C56 37 54 5 53 5 L52 5 L52 3 L52 0 L56 0 L82 0 L108 0 L112 0 L112 3 L112 5 L111 5 C109 5 108 37 108 70 L108 298 L116 287 L117 288 L215 181 C318 68 414 -5 457 -5 L474 -5 L474 -5 Z " />
<glyph glyph-name="M_sc" unicode="&#x1d0d;" horiz-adv-x="585" d="M57 85 L57 85 L76 496 L276 7 L293 26 L293 26 L281 -5 L294 -5 L506 522 L528 44 C528 22 527 5 526 5 L525 5 L525 3 L525 0 L529 0 L555 0 L581 0 L585 0 L585 3 L585 5 L584 5 C583 5 580 29 578 57 L555 484 L555 484 C553 517 553 550 554 549 L555 549 C554 550 554 551 555 552 C554 553 554 554 554 554 C547 555 535 555 528 554 L518 554 L504 554 L305 59 L305 59 L305 59 L112 554 L78 554 L70 554 C67 555 61 555 58 554 L58 552 L58 549 L59 549 C60 550 60 537 60 519 L40 72 L40 72 C39 39 36 7 34 7 L34 5 L34 2 L37 2 L45 2 L53 2 L58 2 L58 5 L58 7 C55 7 55 47 57 87 L57 85 L57 85 Z M554 555 L554 555 L554 555 L554 555 Z M275 9 L292 28 L280 -3 L275 9 L275 9 Z " />
<glyph glyph-name="O_sc" unicode="&#x1d0f;" horiz-adv-x="678" d="M346 8 C220 8 120 155 120 277 C120 399 220 545 346 545 C471 545 571 399 571 277 C571 155 471 8 346 8 L346 8 Z M63 277 C63 149 189 -5 346 -5 C502 -5 628 149 628 277 C628 405 502 558 346 558 C189 558 63 405 63 277 L63 277 Z " />
<glyph glyph-name="P_sc" unicode="&#x1d18;" horiz-adv-x="416" d="M82 0 L108 0 L112 0 L112 3 L112 5 L111 5 C109 5 108 37 108 70 L108 276 L180 276 C289 276 396 344 396 413 C396 484 298 553 198 553 L108 553 L82 553 C74 554 60 554 52 553 L52 551 L52 548 L53 548 C54 549 56 516 56 483 L56 70 C56 37 54 5 53 5 L52 5 L52 3 L52 0 L56 0 L82 0 L82 0 Z M108 286 L108 543 L198 543 C271 543 342 478 342 413 C342 349 262 286 180 286 L108 286 L108 286 Z " />
<glyph glyph-name="T_sc" unicode="&#x1d1b;" horiz-adv-x="539" d="M510 547 L509 553 L499 553 L439 553 L100 553 L40 553 L30 553 L30 547 L29 533 L33 533 L35 534 C42 537 89 540 129 540 L244 540 L244 70 C244 37 242 5 240 5 L240 3 L240 0 L244 0 L270 0 L296 0 L300 0 C299 0 299 1 300 3 C299 4 299 5 300 5 L299 5 C298 5 297 17 296 34 L296 70 L296 540 L410 540 C450 540 497 537 504 534 L507 533 L510 533 L511 533 C510 536 510 543 510 547 L510 547 Z " />
<glyph glyph-name="U_sc" unicode="&#x1d1c;" horiz-adv-x="454" d="M434 553 C431 554 426 554 423 553 C421 554 415 554 413 553 L413 551 L413 548 C415 549 417 511 417 473 L417 149 C417 81 351 13 249 13 C157 13 97 86 97 161 L97 483 C97 516 98 549 100 548 L101 548 L101 551 L101 553 C93 554 78 554 71 553 C63 554 49 554 41 553 L41 551 L41 548 L42 548 C43 549 45 516 45 483 L45 171 C45 82 122 -5 241 -5 C355 -5 429 70 429 146 L429 473 C429 511 431 549 433 548 L434 548 C433 549 433 550 434 551 C433 552 433 553 433 553 L434 553 L434 553 Z M433 553 L433 553 L433 553 L433 553 Z " />
<glyph glyph-name="V_sc" unicode="&#x1d20;" horiz-adv-x="437" d="M386 453 L386 453 L243 -15 L253 -15 L416 512 C423 533 429 549 430 548 L430 551 L430 553 C428 554 424 554 422 553 C419 554 413 554 410 553 L410 551 L410 548 C412 549 400 501 385 453 L386 453 L386 453 Z M31 521 L242 -15 L257 36 L101 483 L101 483 C89 516 79 549 81 548 L82 548 L82 551 L82 553 C73 554 56 554 48 553 C40 554 25 554 18 553 L18 551 L18 548 L19 548 C20 549 25 538 32 522 L31 521 L31 521 Z " />
<glyph glyph-name="W_sc" unicode="&#x1d21;" horiz-adv-x="640" d="M607 508 L486 45 L341 563 L331 563 L181 -15 L191 -15 L341 563 L325 501 L470 -15 L480 -15 L612 483 L613 483 C621 516 632 549 633 548 L634 548 L634 551 L634 553 C632 554 628 554 625 553 C623 554 617 554 614 553 L614 551 L614 548 L615 548 C615 548 612 530 607 507 L607 508 L607 508 Z M23 491 L181 -16 L195 39 L79 482 L80 482 C71 515 64 548 65 547 L66 547 L66 550 L66 552 C58 553 41 553 33 552 C25 553 10 553 3 552 C2 553 2 551 3 550 C2 549 2 548 3 547 C4 548 13 521 23 491 L23 491 Z " />
<glyph glyph-name="Z_sc" unicode="&#x1d22;" horiz-adv-x="489" d="M436 7 C437 10 438 17 438 21 L437 21 L432 21 L430 20 C425 18 393 15 358 14 L328 14 L120 14 L448 553 L418 553 L388 553 L193 553 L132 553 L123 553 L121 547 C120 544 119 538 118 534 L122 534 L124 535 C132 538 179 540 219 540 L380 540 L52 0 L82 0 L111 0 L364 0 L433 0 L434 0 L436 7 L436 7 Z " />
<glyph glyph-name="Wgrave" unicode="&#x1e80;" horiz-adv-x="748" d="M25 590 L25 590 L209 -15 L220 -15 L398 670 L387 670 L209 -15 L226 52 L85 590 L86 590 C77 623 70 655 71 655 L72 655 L72 657 L72 660 L67 660 L35 660 L4 660 L2 660 L2 657 L2 655 L3 655 C4 655 15 623 25 590 L25 590 Z M375 837 C356 865 336 893 334 893 C328 893 311 881 311 877 C311 873 333 846 355 821 L467 691 L471 695 L375 837 L375 837 Z M711 598 L552 -15 L563 -15 L722 590 L722 590 C730 623 740 655 742 655 L743 655 L743 657 L743 660 L740 660 L734 660 L727 660 L722 660 L722 657 L722 655 C724 655 718 628 711 598 L711 598 Z M552 -15 L570 56 L398 670 L379 594 L552 -15 L552 -15 Z " />
<glyph glyph-name="Wacute" unicode="&#x1e82;" horiz-adv-x="748" d="M330 691 L439 821 C461 847 482 874 482 877 C482 881 465 893 459 893 C457 893 438 865 419 837 L326 695 L330 691 L330 691 Z M25 590 L25 590 L209 -15 L220 -15 L398 670 L387 670 L209 -15 L226 52 L85 590 L86 590 C77 623 70 655 71 655 L72 655 L72 657 L72 660 L67 660 L35 660 L4 660 L2 660 L2 657 L2 655 L3 655 C4 655 15 623 25 590 L25 590 Z M711 598 L552 -15 L563 -15 L722 590 L722 590 C730 623 740 655 742 655 L743 655 L743 657 L743 660 L740 660 L734 660 L727 660 L722 660 L722 657 L722 655 C724 655 718 628 711 598 L711 598 Z M552 -15 L570 56 L398 670 L379 594 L552 -15 L552 -15 Z " />
<glyph glyph-name="Wdieresis" unicode="&#x1e84;" horiz-adv-x="748" d="M479 730 C491 730 503 742 503 754 C503 767 491 779 479 779 C466 779 454 767 454 754 C454 742 466 730 479 730 L479 730 Z M307 730 C319 730 331 742 331 754 C331 767 319 779 307 779 C294 779 282 767 282 754 C282 742 294 730 307 730 L307 730 Z M25 590 L25 590 L209 -15 L220 -15 L398 670 L387 670 L209 -15 L226 52 L85 590 L86 590 C77 623 70 655 71 655 L72 655 L72 657 L72 660 L67 660 L35 660 L4 660 L2 660 L2 657 L2 655 L3 655 C4 655 15 623 25 590 L25 590 Z M711 598 L552 -15 L563 -15 L722 590 L722 590 C730 623 740 655 742 655 L743 655 L743 657 L743 660 L740 660 L734 660 L727 660 L722 660 L722 657 L722 655 C724 655 718 628 711 598 L711 598 Z M552 -15 L570 56 L398 670 L379 594 L552 -15 L552 -15 Z " />
<glyph glyph-name="Etilde" unicode="&#x1ebc;" horiz-adv-x="414" d="M79 755 C79 789 98 823 118 823 C163 823 227 761 273 761 C301 761 329 804 329 847 L322 847 C322 817 302 787 282 787 C236 787 172 850 127 850 C100 850 73 803 73 755 L79 755 L79 755 Z M373 7 C374 11 375 18 376 21 L372 21 L370 20 C363 18 307 15 256 14 L98 14 L98 380 L209 380 C252 380 297 378 301 376 L302 376 L305 376 L306 376 L306 380 L306 387 L306 394 L306 398 L305 398 L302 398 L301 398 C297 396 252 395 209 394 L98 394 L98 646 L248 646 C299 646 354 643 361 640 L363 639 L366 639 L366 653 L366 660 L361 660 L296 660 L98 660 L69 660 L41 660 L37 660 L37 657 L37 655 C39 655 41 623 41 590 L41 70 C41 37 39 5 37 5 L37 3 L37 0 L41 0 L69 0 L98 0 L302 0 L371 0 L372 0 L373 7 L373 7 Z " />
<glyph glyph-name="Ygrave" unicode="&#x1ef2;" horiz-adv-x="482" d="M414 570 L414 570 L268 295 L255 295 L125 590 L125 590 C111 623 98 655 99 655 L99 657 L99 660 L94 660 L60 660 L25 660 L25 657 L25 655 C26 655 32 644 40 628 L220 265 L220 70 C220 37 218 5 217 5 L216 5 L216 3 L216 0 L220 0 L249 0 L278 0 L282 0 L282 3 L282 5 L281 5 C280 5 278 37 278 70 L278 295 L449 614 C462 637 473 655 474 655 L475 655 L475 657 L475 660 L474 660 L467 660 L461 660 L455 660 L455 657 L455 655 L456 655 C457 655 436 613 413 570 L414 570 L414 570 Z M231 837 C212 865 192 893 190 893 C184 893 167 881 167 877 C167 873 189 846 211 821 L323 691 L327 695 L231 837 L231 837 Z " />
<glyph glyph-name="quoteleft" unicode="&#x2018;" horiz-adv-x="172" d="M89 586 C86 586 83 585 80 584 C79 589 78 594 78 598 C78 621 93 652 109 660 L106 665 C80 653 54 609 54 578 C54 570 56 560 59 551 C60 546 62 541 65 537 C66 536 67 535 68 534 L68 534 C73 529 80 525 87 525 C101 525 116 540 116 554 C116 569 101 583 87 583 L89 586 L89 586 Z " />
<glyph glyph-name="quoteright" unicode="&#x2019;" horiz-adv-x="172" d="M89 607 C92 607 95 608 98 609 C99 604 100 599 100 595 C100 572 85 541 69 534 L72 528 C98 541 124 584 124 615 C124 623 122 633 119 642 C117 655 104 666 91 666 C76 666 62 652 62 637 C62 622 76 608 91 608 L89 607 L89 607 Z " />
<glyph glyph-name="quotedblleft" unicode="&#x201c;" horiz-adv-x="257" d="M174 586 C171 586 168 585 165 584 C164 589 163 594 163 598 C163 621 178 652 194 660 L191 665 C165 653 139 609 139 578 C139 570 141 560 144 551 C145 546 147 541 150 537 C151 536 152 535 153 534 L153 534 C158 529 165 525 172 525 C187 525 201 540 201 554 C201 569 187 583 172 583 L174 586 L174 586 Z M87 583 C84 583 81 582 78 581 C77 586 76 591 76 595 C76 618 91 649 107 657 L104 662 C78 650 52 606 52 575 C52 567 54 557 57 548 C58 543 60 538 63 534 C64 533 65 532 66 531 L66 531 C71 526 78 522 85 522 C99 522 114 537 114 551 C114 566 99 580 85 580 L87 583 L87 583 Z " />
<glyph glyph-name="quotedblright" unicode="&#x201d;" horiz-adv-x="257" d="M174 607 C177 607 180 608 183 609 C184 604 185 599 185 595 C185 572 170 541 154 534 L157 528 C183 541 209 584 209 615 C209 623 207 633 204 642 C202 655 189 666 176 666 C161 666 147 652 147 637 C147 622 161 608 176 608 L174 607 L174 607 Z M91 608 C94 608 97 609 100 610 C101 605 102 600 102 596 C102 573 87 542 71 535 L74 529 C100 542 126 585 126 616 C126 624 124 634 121 643 C119 656 106 667 93 667 C78 667 64 653 64 638 C64 623 78 609 93 609 L91 608 L91 608 Z " />
<glyph glyph-name="ellipsis" unicode="&#x2026;" horiz-adv-x="420" d="M350 0 C365 0 379 14 379 29 C379 44 365 58 350 58 C335 58 321 44 321 29 C321 14 335 0 350 0 L350 0 Z M210 0 C225 0 239 14 239 29 C239 44 225 58 210 58 C195 58 181 44 181 29 C181 14 195 0 210 0 L210 0 Z M70 0 C85 0 99 14 99 29 C99 44 85 58 70 58 C55 58 41 44 41 29 C41 14 55 0 70 0 L70 0 Z " />
<glyph glyph-name="guilsinglleft" unicode="&#x2039;" horiz-adv-x="261" d="M62 251 L216 460 L211 464 L20 253 L20 248 L212 37 L217 41 L62 251 L62 251 Z " />
<glyph glyph-name="guilsinglright" unicode="&#x203a;" horiz-adv-x="261" d="M200 251 L46 460 L50 464 L242 253 L242 248 L49 37 L45 41 L200 251 L200 251 Z " />
<glyph glyph-name="Euro" unicode="&#x20ac;" horiz-adv-x="638" d="M46 279 L100 279 C124 129 245 -5 367 -5 C409 -5 513 32 578 69 L578 88 L575 88 L573 88 L569 84 C557 74 536 63 511 52 C498 46 485 41 472 36 C445 26 417 17 394 12 L394 12 C383 10 373 9 366 9 C273 9 181 136 162 279 L404 279 L408 308 L159 308 C158 316 158 324 158 332 C158 340 158 348 159 356 L408 356 L412 384 L162 384 C181 524 273 649 366 649 C382 649 406 645 432 638 L432 638 C480 624 547 595 568 580 L572 576 L574 576 L577 576 L577 595 C516 630 412 664 366 664 C244 664 123 532 99 385 L53 385 L49 357 L96 357 C95 349 95 341 95 333 C95 325 95 317 96 309 L49 309 L46 279 L46 279 Z " />
<glyph glyph-name="F_sc" unicode="&#xa730;" horiz-adv-x="358" d="M353 547 L353 553 L348 553 L283 553 L94 553 L68 553 C60 554 46 554 38 553 L38 551 L38 548 L39 548 C40 549 42 516 42 483 L42 70 C42 37 40 5 39 5 L38 5 L38 3 L38 0 L42 0 L68 0 L94 0 L100 0 L100 3 L100 5 L99 5 C97 5 94 37 94 70 L94 314 L157 314 C200 314 245 312 248 310 L249 309 L253 309 L253 314 L253 320 L253 327 L253 330 L249 330 L248 330 C246 329 228 328 204 327 L156 327 L93 327 L93 540 L234 540 C284 540 340 537 346 534 L349 533 L352 533 L353 547 L353 547 Z " />
<glyph glyph-name="S_sc" unicode="&#xa731;" horiz-adv-x="422" d="M267 522 L267 521 C275 517 298 499 320 481 C324 477 327 473 330 469 L332 471 C333 470 334 469 335 468 L339 464 L341 464 L343 464 L343 482 C311 520 239 558 198 558 C124 558 51 481 51 403 C51 353 119 281 188 258 C264 232 339 164 339 120 C339 64 283 8 225 8 C206 8 183 12 160 19 C131 30 86 56 57 78 C56 79 55 80 54 81 L53 80 C52 81 51 82 50 83 C49 84 47 86 46 86 L44 86 L42 86 L42 68 L48 74 L48 74 L42 68 C74 30 165 -8 226 -8 C302 -8 377 65 377 139 C377 190 302 266 226 292 C157 316 88 379 88 421 C88 482 142 543 197 543 C215 543 241 533 266 518 L267 522 L267 522 Z " />
<glyph glyph-name="X_sc" unicode="&#xf078;" horiz-adv-x="516" d="M142 85 L141 85 L250 262 L385 66 C406 35 425 6 425 6 L425 4 L425 1 L430 1 L459 1 L489 1 L489 4 C488 5 488 6 488 6 C487 6 465 37 442 69 L282 303 L430 503 C449 528 465 549 466 548 L467 548 L467 551 L467 553 C465 554 461 554 459 553 C455 554 449 554 445 553 L445 551 L445 548 L446 548 C446 548 432 527 414 502 L276 311 L158 483 L158 483 C157 484 156 485 155 486 L143 503 C126 527 113 547 112 548 L113 548 L113 551 L113 553 C104 554 87 554 78 553 C71 554 56 554 48 553 C48 553 48 552 49 551 C48 550 49 549 49 548 C50 549 62 533 76 512 L92 488 C93 486 94 484 95 482 L95 482 L241 270 L116 69 L115 69 C95 36 73 4 71 4 L71 2 L71 -1 L72 -1 L79 -1 L86 -1 L92 -1 L92 2 L92 4 C90 4 114 44 139 84 L142 85 L142 85 Z " />
</font>
</svg>
